<svg width="82" height="88" viewBox="0 0 82 88" fill="none" xmlns="http://www.w3.org/2000/svg">
<rect x="12" y="18" width="70" height="70" rx="10" fill="#FFAB55" fill-opacity="0.25"/>
<path d="M53.8125 39.7188C54.5201 39.7188 55.0938 39.1451 55.0938 38.4375C55.0938 37.7299 54.5201 37.1562 53.8125 37.1562C53.1049 37.1562 52.5312 37.7299 52.5312 38.4375C52.5312 39.1451 53.1049 39.7188 53.8125 39.7188Z" fill="#233BBF"/>
<path d="M64.0625 39.7188C64.7701 39.7188 65.3438 39.1451 65.3438 38.4375C65.3438 37.7299 64.7701 37.1562 64.0625 37.1562C63.3549 37.1562 62.7812 37.7299 62.7812 38.4375C62.7812 39.1451 63.3549 39.7188 64.0625 39.7188Z" fill="#233BBF"/>
<path d="M65.3438 44.8438H62.7812C62.7812 46.257 61.632 47.4062 60.2188 47.4062H55.0938V49.9688H60.2188C63.0452 49.9688 65.3438 47.6702 65.3438 44.8438Z" fill="#233BBF"/>
<path d="M65.0465 55.2757L64.7762 54.4647C67.7205 53.3038 69.9024 50.6312 70.3662 47.405H70.4688C73.2952 47.405 75.5938 45.1064 75.5938 42.28C75.5938 41.2306 75.2747 40.2543 74.7315 39.442C75.2991 37.0678 75.5938 34.6296 75.5938 32.1888V23.0625C75.5938 20.9433 73.8692 19.2188 71.75 19.2188H55.2513C51.8048 19.2188 48.781 21.3956 47.6587 24.5974C44.4581 25.7185 42.2812 28.7423 42.2812 32.1888C42.2812 34.6296 42.5759 37.0666 43.1435 39.4433C42.6003 40.2569 42.2812 41.2319 42.2812 42.2812C42.2812 45.1077 44.5798 47.4062 47.4062 47.4062H47.5088C47.9738 50.6324 50.1545 53.3038 53.0988 54.4659L52.8285 55.277C45.5997 56.7773 39.9981 62.0843 37.9801 68.9018L37.2178 64.3252C38.8488 61.6999 39.7188 58.6979 39.7188 55.5998V43.5625C39.7188 41.8943 38.6438 40.4849 37.1562 39.9545V3.84375C37.1562 2.43053 36.007 1.28125 34.5938 1.28125H3.84375C2.43053 1.28125 1.28125 2.43053 1.28125 3.84375V47.4062C1.28125 48.8195 2.43053 49.9688 3.84375 49.9688H3.92319C4.05644 50.5094 4.35881 50.9963 4.80469 51.3538L9.41334 55.0399C10.1027 55.5922 10.6408 56.3173 10.9701 57.1399L11.1892 57.687C12.3038 60.4724 14.1501 62.8543 16.5435 64.6352L14.2898 78.1562H1.28125V80.7188H80.7188V74.5252C80.7188 65.1298 74.1703 57.1694 65.0465 55.2757ZM53.6395 57.7203L56.2776 59.04L53.432 60.7479L52.8605 57.8869C53.1168 57.8254 53.3769 57.7703 53.6395 57.7203ZM58.6569 65.3438H59.2181L62.4212 78.1562H55.4525L58.6569 65.3438ZM59.295 62.7812H58.58L57.9868 61.0029L58.9375 60.4314L59.8882 61.0016L59.295 62.7812ZM61.5987 59.04L64.2368 57.7203C64.4994 57.7703 64.7595 57.8254 65.017 57.8869L64.4456 60.7479L61.5987 59.04ZM70.4688 44.8438V39.7188C71.882 39.7188 73.0312 40.868 73.0312 42.2812C73.0312 43.6945 71.882 44.8438 70.4688 44.8438ZM44.8438 42.2812C44.8438 40.868 45.993 39.7188 47.4062 39.7188V44.8438C45.993 44.8438 44.8438 43.6945 44.8438 42.2812ZM47.4062 35.875V37.1562C46.6785 37.1562 45.9879 37.3138 45.3614 37.588C45.0206 35.8084 44.8438 33.9992 44.8438 32.1888C44.8438 29.6673 46.5517 27.4802 48.9976 26.8678L49.7433 26.6807L49.9303 25.9351C50.5415 23.4892 52.7298 21.7812 55.2513 21.7812H71.75C72.4573 21.7812 73.0312 22.3565 73.0312 23.0625V32.1888C73.0312 34.0005 72.8544 35.8097 72.5136 37.588C71.8858 37.3138 71.1965 37.1562 70.4688 37.1562V35.875C70.4688 33.7558 68.7442 32.0312 66.625 32.0312H56.375C55.6678 32.0312 55.0938 31.456 55.0938 30.75V26.9062H52.5312V29.5982C49.6113 30.1927 47.4062 32.7808 47.4062 35.875ZM49.9688 46.125V35.875C49.9688 34.1056 51.1706 32.6117 52.8016 32.1658C53.3666 33.5867 54.7555 34.5938 56.375 34.5938H66.625C67.3323 34.5938 67.9062 35.169 67.9062 35.875V46.125C67.9062 49.6574 65.0324 52.5312 61.5 52.5312H56.375C52.8426 52.5312 49.9688 49.6574 49.9688 46.125ZM56.375 55.0938H61.5C61.7601 55.0938 62.0176 55.0771 62.2726 55.054L62.4968 55.7254L58.9375 57.5051L55.3795 55.7267L55.6037 55.0553C55.8574 55.0771 56.1149 55.0938 56.375 55.0938ZM50.4031 58.6723L51.6318 64.8159L55.7357 62.3533L56.3225 64.115L52.8131 78.1562H47.4062V70.4688H44.8438V78.1562H39.7188V74.5252C39.7188 67.4066 44.0443 61.2361 50.4031 58.6723ZM3.84375 3.84375H34.5938V39.9545C34.5451 39.9724 34.4925 39.9814 34.4451 40.0006C34.0031 38.367 32.522 37.1562 30.75 37.1562C29.7622 37.1562 28.8691 37.5419 28.1875 38.1556C27.5059 37.5406 26.6128 37.1562 25.625 37.1562C25.174 37.1562 24.7461 37.2485 24.3438 37.392V34.5938H32.0312V32.0312H24.3438V30.75C24.3438 30.299 24.2515 29.8711 24.108 29.4688H32.0312V26.9062H14.0938V29.4688H16.892C16.7485 29.8711 16.6562 30.299 16.6562 30.75V32.0312H6.40625V34.5938H16.6562V37.1562H6.40625V39.7188H16.6562V45.7368C16.6562 46.658 15.908 47.4062 14.9868 47.4062C14.6562 47.4062 14.3359 47.3089 14.0604 47.1257L12.5383 46.1109C11.2955 45.2819 9.84897 44.8438 8.35247 44.8438C6.56641 44.8438 5.03403 45.8957 4.30372 47.4062H3.84375V3.84375ZM13.5672 56.7337L13.3481 56.1879C12.8561 54.9567 12.0489 53.8676 11.0136 53.0386L6.40625 49.3525C6.40625 48.2788 7.28006 47.4062 8.35375 47.4062C9.34159 47.4062 10.2974 47.6958 11.1174 48.2429L12.6395 49.2577C13.3365 49.7227 14.1488 49.9688 14.9868 49.9688C17.3212 49.9688 19.2188 48.0712 19.2188 45.7368V30.75C19.2188 30.044 19.7927 29.4688 20.5 29.4688C21.2073 29.4688 21.7812 30.044 21.7812 30.75V49.9688H24.3438V41C24.3438 40.294 24.9177 39.7188 25.625 39.7188C26.3323 39.7188 26.9062 40.294 26.9062 41V49.9688H29.4688V41C29.4688 40.294 30.0427 39.7188 30.75 39.7188C31.4573 39.7188 32.0312 40.294 32.0312 41V49.9688H34.5938V43.5625C34.5938 42.8565 35.1678 42.2812 35.875 42.2812C36.5822 42.2812 37.1562 42.8565 37.1562 43.5625V55.5998C37.1562 58.1418 36.4721 60.6108 35.169 62.7812H18.336C16.1912 61.2643 14.5473 59.1809 13.5672 56.7337ZM19.0227 65.3438H34.7898L36.9256 78.1562H16.8869L19.0227 65.3438ZM78.1562 78.1562H73.0312V70.4688H70.4688V78.1562H65.0619L61.5525 64.1138L62.1393 62.352L66.2432 64.8146L67.4719 58.671C73.8307 61.2361 78.1562 67.4066 78.1562 74.5252V78.1562Z" fill="#233BBF"/>
<path d="M26.9062 21.7812C26.9062 18.8856 25.297 16.3616 22.9254 15.0508C23.7992 14.1309 24.3438 12.8958 24.3438 11.5312C24.3438 8.70481 22.0452 6.40625 19.2188 6.40625C16.3923 6.40625 14.0938 8.70481 14.0938 11.5312C14.0938 12.8958 14.6383 14.1309 15.5121 15.0508C13.1405 16.3616 11.5312 18.8856 11.5312 21.7812V24.3438H26.9062V21.7812ZM16.6562 11.5312C16.6562 10.118 17.8055 8.96875 19.2188 8.96875C20.632 8.96875 21.7812 10.118 21.7812 11.5312C21.7812 12.9445 20.632 14.0938 19.2188 14.0938C17.8055 14.0938 16.6562 12.9445 16.6562 11.5312ZM14.0938 21.7812C14.0938 18.9548 16.3923 16.6562 19.2188 16.6562C22.0452 16.6562 24.3438 18.9548 24.3438 21.7812H14.0938Z" fill="#233BBF"/>
<path d="M6.40625 26.9062H11.5312V29.4688H6.40625V26.9062Z" fill="#233BBF"/>
</svg>
