<svg width="82" height="92" viewBox="0 0 82 92" fill="none" xmlns="http://www.w3.org/2000/svg">
<rect x="12" y="22" width="70" height="70" rx="10" fill="#FFAB55" fill-opacity="0.25"/>
<path d="M24.0619 63.0247L23.6903 61.9126C25.2483 61.0093 26.4053 59.491 26.7768 57.6716H26.9062C29.7327 57.6716 32.0312 55.3731 32.0312 52.5466C32.0312 51.5024 31.7135 50.5312 31.1754 49.7202L31.7199 47.5421C31.9262 46.7195 32.0312 45.87 32.0312 45.018C32.0312 39.2793 27.3624 34.6104 21.6237 34.6104H19.2188V31.9018C22.1387 31.3061 24.3438 28.7192 24.3438 25.625V24.263C24.3438 23.8812 24.5116 23.5238 24.805 23.279L28.1157 20.5192C30.6052 18.4449 32.0312 15.4006 32.0312 12.1603C32.0312 6.16281 27.1497 1.28125 21.1522 1.28125H14.7228C8.72531 1.28125 3.84375 6.16281 3.84375 12.1603C3.84375 15.3993 5.26978 18.4449 7.75797 20.5179L11.0713 23.2778C11.3634 23.5225 11.5312 23.8812 11.5312 24.263V25.625C11.5312 28.7179 13.7363 31.3061 16.6562 31.9018V34.6104H14.2513C8.51263 34.6104 3.84375 39.278 3.84375 45.018C3.84375 45.87 3.94881 46.7195 4.15509 47.5421L4.69963 49.7215C4.1615 50.5325 3.84375 51.5024 3.84375 52.5479C3.84375 55.3743 6.14231 57.6729 8.96875 57.6729H9.09816C9.46844 59.491 10.6267 61.0093 12.1834 61.9139L11.8131 63.0247C5.57728 64.9043 1.28125 70.6366 1.28125 77.2068V80.7341L28.5078 80.7418L31.9928 80.7405C33.6712 80.738 34.5938 80.7367 34.5938 79.4542V77.2068C34.5938 70.6366 30.2977 64.9043 24.0619 63.0247ZM9.39797 18.5499C7.49788 16.965 6.40625 14.637 6.40625 12.1603C6.40625 7.57475 10.1372 3.84375 14.7228 3.84375H21.1522C25.7378 3.84375 29.4688 7.57475 29.4688 12.1603C29.4688 14.637 28.3771 16.965 26.4757 18.5487L23.165 21.3085C22.2861 22.0413 21.7812 23.1189 21.7812 24.263V24.3438H19.2188V17.7018C20.7063 17.1713 21.7812 15.7619 21.7812 14.0938C21.7812 11.9746 20.0567 10.25 17.9375 10.25C15.8183 10.25 14.0938 11.9746 14.0938 14.0938C14.0938 15.7619 15.1687 17.1713 16.6562 17.7018V24.3438H14.0938V24.263C14.0938 23.1189 13.5889 22.0426 12.7113 21.3098L9.39797 18.5499ZM16.6562 14.0938C16.6562 13.3865 17.2303 12.8125 17.9375 12.8125C18.6448 12.8125 19.2188 13.3865 19.2188 14.0938C19.2188 14.801 18.6448 15.375 17.9375 15.375C17.2303 15.375 16.6562 14.801 16.6562 14.0938ZM14.3295 26.9063H21.5442C21.0138 28.3938 19.6044 29.4688 17.9362 29.4688C16.268 29.4688 14.8599 28.3938 14.3295 26.9063ZM24.8345 66.0497L23.7403 68.6276L20.5987 66.7429L23.1868 65.4488C23.7544 65.6141 24.3066 65.8114 24.8345 66.0497ZM17.5788 73.0479H18.295L20.0054 78.1793C18.655 78.1793 17.2674 78.1793 15.8683 78.178L17.5788 73.0479ZM18.3911 70.4854H17.4852L16.7485 68.8505L17.9375 68.1356L19.1278 68.8493L18.3911 70.4854ZM26.9062 55.1104V49.9854C28.3195 49.9854 29.4688 51.1347 29.4688 52.5479C29.4688 53.9611 28.3195 55.1104 26.9062 55.1104ZM6.40625 52.5479C6.40625 51.1347 7.55553 49.9854 8.96875 49.9854V55.1104C7.55553 55.1104 6.40625 53.9599 6.40625 52.5479ZM9.09687 47.4229H8.96875C8.22306 47.4229 7.51966 47.5908 6.87903 47.8778L6.64072 46.9194C6.48569 46.3005 6.40625 45.6599 6.40625 45.018C6.40625 40.6925 9.92584 37.1729 14.2513 37.1729H21.6237C25.9492 37.1729 29.4688 40.6925 29.4688 45.018C29.4688 45.6599 29.3893 46.3005 29.2343 46.9207L28.9947 47.8778C28.3553 47.5908 27.6507 47.4216 26.905 47.4216H25.6903L18.0387 46.6567C15.7901 46.4325 14.0938 44.558 14.0938 42.2979H11.5312C11.5312 42.8732 11.6004 43.4331 11.7311 43.9687C10.3563 44.681 9.41591 45.9508 9.09687 47.4229ZM11.5312 48.5171C11.5312 47.5972 12.0117 46.7656 12.7958 46.3057C13.9195 47.8983 15.703 48.9988 17.785 49.2077L24.3438 49.8637V56.3917C24.3438 58.5108 22.6192 60.2354 20.5 60.2354H15.375C13.2558 60.2354 11.5312 58.5108 11.5312 56.3917V48.5171ZM15.375 62.7979H20.5C20.7601 62.7979 21.0074 62.7518 21.2585 62.721L21.4942 63.4296L17.9375 65.2092L14.3795 63.4296L14.6152 62.721C14.8676 62.7505 15.1149 62.7979 15.375 62.7979ZM12.6882 65.4501L15.2763 66.7442L12.1347 68.6289L11.0405 66.051C11.5684 65.8114 12.1206 65.6141 12.6882 65.4501ZM3.84375 77.2068C3.84375 73.2222 5.7605 69.618 8.81244 67.3617L10.9278 72.3419L14.5345 70.1779L15.2828 71.8371L13.17 78.1768C9.84513 78.1755 6.58947 78.1755 3.84375 78.1742V77.2068ZM32.0312 78.178C30.2695 78.1793 26.8012 78.1793 22.7063 78.1793L20.5923 71.8384L21.3405 70.1792L24.9472 72.3432L27.0626 67.363C30.1145 69.618 32.0312 73.2222 32.0312 77.2068V78.178Z" fill="#233BBF"/>
<path d="M22.7922 54.6722L22.9267 54.4018L20.6345 53.2551L20.5 53.5255C20.0118 54.5031 19.0304 55.1091 17.9375 55.1091H14.0938V57.6716H17.9375C20.0067 57.6729 21.8671 56.5223 22.7922 54.6722Z" fill="#233BBF"/>
<path d="M80.7188 47.4062V43.8777C80.7188 39.4753 78.7841 35.4573 75.636 32.7142C77.244 30.9127 78.1562 28.5898 78.1562 26.1311V15.375C78.1562 7.60422 71.8333 1.28125 64.0625 1.28125C56.2917 1.28125 49.9688 7.60422 49.9688 15.375V26.1311C49.9688 28.5911 50.881 30.9127 52.489 32.7142C49.3409 35.4573 47.4062 39.4753 47.4062 43.8777V47.4062H62.7812V60.2188H60.2405L60.2713 63.7922L60.2815 63.8101L60.2636 63.8203L57.1655 62.0099L53.3487 68.6699L56.4685 70.4572L53.3487 72.2689L57.1655 78.9288L60.2392 77.121V80.7188H67.8845L67.8601 77.1172L70.9582 78.9276L74.775 72.2676L71.6782 70.4688L74.7763 68.6699L70.9595 62.0099L67.8934 63.8152L67.8845 60.2188H65.3438V47.4062H80.7188ZM66.6199 66.0395L66.6353 66.0472C66.6583 66.06 66.6801 66.0728 66.7032 66.0843L66.7339 66.0997C67.4962 66.4905 68.4111 66.4674 69.1555 66.0318L70.0216 65.5244L71.2862 67.7333L70.3701 68.265C69.5924 68.7186 69.1093 69.5603 69.1119 70.4739C69.1093 71.3772 69.5924 72.2189 70.3701 72.6725L71.2862 73.2042L70.0216 75.4131L69.1529 74.9057C68.3649 74.4496 67.3873 74.4509 66.5866 74.9198C65.8076 75.3734 65.3233 76.219 65.3233 77.1223V78.1562H62.803V77.1197C62.803 76.2164 62.3187 75.3721 61.5282 74.9096C60.7364 74.447 59.7575 74.4445 58.9708 74.9044L58.1047 75.4118L56.8401 73.2029L57.7562 72.6712C58.5339 72.2177 59.0169 71.3759 59.0144 70.4623C59.0169 69.5591 58.5339 68.7173 57.7549 68.2624L56.8401 67.732L58.1047 65.5231L58.9734 66.0305C59.7203 66.4648 60.6364 66.4841 61.4026 66.092L61.5397 66.0164C62.3187 65.5628 62.803 64.7172 62.803 63.8139V62.7812H65.3233V63.8178C65.322 64.7211 65.8063 65.5654 66.6199 66.0395ZM52.5312 26.1311V15.375C52.5312 9.01616 57.7037 3.84375 64.0625 3.84375C70.4213 3.84375 75.5938 9.01616 75.5938 15.375V26.1311C75.5938 28.0389 74.8609 29.8378 73.563 31.1972C72.52 30.5693 71.3912 30.0594 70.1869 29.6968L69.6654 28.1337C71.6962 26.7487 73.0312 24.4181 73.0312 21.7812V14.0938H70.4688V21.7812C70.4688 24.6077 68.1702 26.9062 65.3438 26.9062H62.7812C59.9548 26.9062 57.6562 24.6077 57.6562 21.7812V14.3961C57.6562 13.3429 58.138 12.3782 58.9477 11.7503L64.6852 15.1931L66.0036 12.9957L58.9939 8.78938L58.3648 9.10328C56.3481 10.1142 55.0938 12.1424 55.0938 14.3961V21.7812C55.0938 24.4181 56.4288 26.7487 58.4583 28.1337L57.9368 29.6968C56.7325 30.0594 55.6037 30.5693 54.5607 31.1972C53.2641 29.8378 52.5312 28.0389 52.5312 26.1311ZM67.2285 34.5938H60.8953C60.4801 33.4253 60.2482 32.1901 60.2277 30.9294L60.803 29.2022C61.4359 29.3701 62.0971 29.4688 62.7812 29.4688H65.3438C66.0279 29.4688 66.6891 29.3701 67.3207 29.201L67.896 30.9281C67.8768 32.1901 67.6449 33.4253 67.2285 34.5938ZM65.9383 37.1562C65.4053 37.9545 64.7851 38.6963 64.0625 39.3433C63.3399 38.6963 62.7197 37.9545 62.1867 37.1562H65.9383ZM49.9688 43.8777C49.9688 38.7719 53.1117 34.2875 57.7677 32.4746C58.2379 36.2414 60.2264 39.7252 63.2925 42.025L64.0625 42.6016L64.8325 42.025C67.8986 39.7252 69.8871 36.2414 70.3573 32.4746C75.0146 34.2875 78.1562 38.7719 78.1562 43.8777V44.8438H49.9688V43.8777Z" fill="#233BBF"/>
<path d="M63.4414 8.75635L64.7611 6.55772L71.1712 10.4053L69.8515 12.6039L63.4414 8.75635Z" fill="#233BBF"/>
<path d="M66.625 20.1977C66.1368 21.174 65.1554 21.7813 64.0625 21.7813H60.2188V24.3438H64.0625C66.1317 24.3438 67.9921 23.1945 68.9172 21.3431L69.0517 21.0727L66.7595 19.926L66.625 20.1977Z" fill="#233BBF"/>
<path d="M60.2188 70.4688C60.2188 72.5879 61.9433 74.3125 64.0625 74.3125C66.1817 74.3125 67.9062 72.5879 67.9062 70.4688C67.9062 68.3496 66.1817 66.625 64.0625 66.625C61.9433 66.625 60.2188 68.3496 60.2188 70.4688ZM65.3438 70.4688C65.3438 71.176 64.7698 71.75 64.0625 71.75C63.3553 71.75 62.7812 71.176 62.7812 70.4688C62.7812 69.7615 63.3553 69.1875 64.0625 69.1875C64.7698 69.1875 65.3438 69.7615 65.3438 70.4688Z" fill="#233BBF"/>
</svg>
