<svg width="82" height="94" viewBox="0 0 82 94" fill="none" xmlns="http://www.w3.org/2000/svg">
<rect x="12" y="24" width="70" height="70" rx="10" fill="#FFAB55" fill-opacity="0.25"/>
<path d="M78.1562 34.5938C79.5695 34.5938 80.7188 33.4445 80.7188 32.0312V19.2188C80.7188 17.8055 79.5695 16.6562 78.1562 16.6562H48.2429C44.5811 7.42741 35.6175 1.28125 25.625 1.28125C12.2013 1.28125 1.28125 12.2013 1.28125 25.625C1.28125 36.9551 9.07381 46.4748 19.5724 49.1757C19.3456 49.8381 19.2188 50.5351 19.2188 51.25V76.875C19.2188 78.9942 20.9433 80.7188 23.0625 80.7188H28.1875C30.3067 80.7188 32.0312 78.9942 32.0312 76.875V51.25C32.0312 50.5389 31.907 49.8457 31.6815 49.1859C34.5592 48.4466 37.2805 47.1884 39.7188 45.4536V55.0938C39.7188 56.507 40.868 57.6562 42.2812 57.6562H78.1562C79.5695 57.6562 80.7188 56.507 80.7188 55.0938V42.2812C80.7188 40.868 79.5695 39.7188 78.1562 39.7188H45.46C46.5927 38.13 47.5126 36.4118 48.2327 34.5938H78.1562ZM32.0312 34.5938H39.6521C36.6168 39.319 31.3176 42.2812 25.625 42.2812C16.441 42.2812 8.96875 34.809 8.96875 25.625C8.96875 16.441 16.441 8.96875 25.625 8.96875C31.3176 8.96875 36.6168 11.931 39.6521 16.6562H32.0312C30.618 16.6562 29.4688 17.8055 29.4688 19.2188V32.0312C29.4688 33.4445 30.618 34.5938 32.0312 34.5938ZM32.0312 32.0312V19.2188H47.4062V32.0312H32.0312ZM78.1575 32.0312H49.9688V19.2188H78.1562L78.1575 32.0312ZM28.1875 78.1562H23.0625C22.3565 78.1562 21.7812 77.581 21.7812 76.875V57.6562H29.4688V76.875C29.4688 77.581 28.8935 78.1562 28.1875 78.1562ZM29.4688 51.25V55.0938H21.7812V51.25C21.7812 50.7042 21.903 50.1763 22.1208 49.6869C23.2688 49.8534 24.4322 49.9688 25.625 49.9688C26.8076 49.9688 27.9748 49.8586 29.1305 49.6907C29.3483 50.1789 29.4688 50.7055 29.4688 51.25ZM42.2812 42.2812H60.2188V55.0938H42.2812V42.2812ZM78.1562 55.0938H62.7812V42.2812H78.1562V55.0938ZM42.2005 39.7264C40.8527 39.77 39.77 40.8527 39.7277 42.2018C35.7917 45.5523 30.8115 47.4062 25.625 47.4062C13.6146 47.4062 3.84375 37.6354 3.84375 25.625C3.84375 13.6146 13.6146 3.84375 25.625 3.84375C34.2235 3.84375 41.9802 8.92391 45.4754 16.6562H42.6131C39.3036 10.4076 32.7308 6.40625 25.625 6.40625C15.0278 6.40625 6.40625 15.0278 6.40625 25.625C6.40625 36.2222 15.0278 44.8438 25.625 44.8438C32.7308 44.8438 39.3036 40.8424 42.6131 34.5938H45.4677C44.6311 36.4477 43.5317 38.1633 42.2005 39.7264Z" fill="#233BBF"/>
<path d="M73.0312 24.3438H75.5938V26.9062H73.0312V24.3438Z" fill="#233BBF"/>
<path d="M67.9062 24.3438H70.4688V26.9062H67.9062V24.3438Z" fill="#233BBF"/>
<path d="M62.7812 24.3438H65.3438V26.9062H62.7812V24.3438Z" fill="#233BBF"/>
<path d="M57.6562 24.3438H60.2188V26.9062H57.6562V24.3438Z" fill="#233BBF"/>
<path d="M52.5312 24.3438H55.0938V26.9062H52.5312V24.3438Z" fill="#233BBF"/>
<path d="M43.9375 20.8754L37.1558 27.657L35.4992 26.0004L33.6875 27.8121L37.1558 31.2804L45.7492 22.6871L43.9375 20.8754Z" fill="#233BBF"/>
<path d="M73.0312 62.7812H37.1562C35.743 62.7812 34.5938 63.9305 34.5938 65.3438V78.1562C34.5938 79.5695 35.743 80.7188 37.1562 80.7188H73.0312C74.4445 80.7188 75.5938 79.5695 75.5938 78.1562V65.3438C75.5938 63.9305 74.4445 62.7812 73.0312 62.7812ZM37.1562 65.3438H52.5312V78.1562H37.1562V65.3438ZM55.0938 78.1562V65.3438H73.0312L73.0325 78.1562H55.0938Z" fill="#233BBF"/>
<path d="M67.9062 70.4688H70.4688V73.0312H67.9062V70.4688Z" fill="#233BBF"/>
<path d="M62.7812 70.4688H65.3438V73.0312H62.7812V70.4688Z" fill="#233BBF"/>
<path d="M57.6562 70.4688H60.2188V73.0312H57.6562V70.4688Z" fill="#233BBF"/>
<path d="M44.8438 47.4062H47.4062V49.9688H44.8438V47.4062Z" fill="#233BBF"/>
<path d="M49.9688 47.4062H52.5312V49.9688H49.9688V47.4062Z" fill="#233BBF"/>
<path d="M55.0938 47.4062H57.6562V49.9688H55.0938V47.4062Z" fill="#233BBF"/>
<path d="M49.0625 67.0004L42.2808 73.782L40.6242 72.1254L38.8125 73.9371L42.2808 77.4054L50.8742 68.8121L49.0625 67.0004Z" fill="#233BBF"/>
<path d="M65.7188 51.6254L67.5304 53.4371L70.4683 50.4992L73.4063 53.4371L75.2179 51.6254L72.28 48.6875L75.2179 45.7496L73.4063 43.9379L70.4683 46.8758L67.5304 43.9379L65.7188 45.7496L68.6567 48.6875L65.7188 51.6254Z" fill="#233BBF"/>
</svg>
