<svg width="82" height="92" viewBox="0 0 82 92" fill="none" xmlns="http://www.w3.org/2000/svg">
<rect x="12" y="22" width="70" height="70" rx="10" fill="#FFAB55" fill-opacity="0.25"/>
<path d="M41 57.6562C34.6412 57.6562 29.4688 62.8299 29.4688 69.1875C29.4688 75.5451 34.6412 80.7188 41 80.7188C47.3588 80.7188 52.5312 75.5451 52.5312 69.1875C52.5312 62.8299 47.3588 57.6562 41 57.6562ZM36.1018 76.6918C36.7411 74.5636 38.7219 73.0312 41 73.0312C43.2781 73.0312 45.2589 74.5636 45.8982 76.6918C44.4876 77.6143 42.8066 78.1562 41 78.1562C39.1934 78.1562 37.5124 77.6143 36.1018 76.6918ZM38.4375 67.9062C38.4375 66.493 39.5868 65.3438 41 65.3438C42.4132 65.3438 43.5625 66.493 43.5625 67.9062C43.5625 69.3195 42.4132 70.4688 41 70.4688C39.5868 70.4688 38.4375 69.3195 38.4375 67.9062ZM47.9226 74.8827C47.2256 73.4207 46.0943 72.2202 44.6913 71.4438C45.5753 70.5238 46.125 69.2797 46.125 67.9062C46.125 65.0798 43.8264 62.7812 41 62.7812C38.1736 62.7812 35.875 65.0798 35.875 67.9062C35.875 69.2797 36.4247 70.5238 37.3087 71.4451C35.9057 72.2215 34.7757 73.4207 34.0774 74.8839C32.8 73.3323 32.0312 71.3477 32.0312 69.1875C32.0312 64.2419 36.0557 60.2188 41 60.2188C45.9443 60.2188 49.9688 64.2419 49.9688 69.1875C49.9688 71.3477 49.2 73.3323 47.9226 74.8827Z" fill="#233BBF"/>
<path d="M41 1.28125C34.6412 1.28125 29.4688 6.45494 29.4688 12.8125C29.4688 14.3052 29.7634 15.7273 30.2811 17.0381C29.6212 16.8074 28.9242 16.6562 28.1875 16.6562C26.0683 16.6562 24.3438 18.3821 24.3438 20.5V23.6672C24.3438 26.0068 23.0971 28.208 21.0907 29.4124C19.1957 30.5501 17.7671 32.3311 17.0701 34.4259L17.0406 34.5156L1.28125 33.2023V55.0938H41C43.1192 55.0938 44.8438 53.3692 44.8438 51.25C44.8438 50.7439 44.74 50.2634 44.5619 49.8214C46.1955 49.3768 47.4062 47.897 47.4062 46.125C47.4062 45.1372 47.0206 44.2441 46.4069 43.5625C47.0219 42.8809 47.4062 41.9878 47.4062 41C47.4062 40.0122 47.0206 39.1191 46.4069 38.4375C47.0219 37.7559 47.4062 36.8628 47.4062 35.875C47.4062 33.7571 45.683 32.0312 43.5638 32.0312H37.1562C35.743 32.0312 34.5938 30.882 34.5938 29.4688V23.0625C34.5938 22.8165 34.5476 22.5833 34.5207 22.345C36.3696 23.6045 38.5989 24.3438 41 24.3438C47.3588 24.3438 52.5312 19.1701 52.5312 12.8125C52.5312 6.45494 47.3588 1.28125 41 1.28125ZM16.6562 52.5312H3.84375V35.9865L16.6562 37.0537V52.5312ZM37.1562 34.5938H43.5638C44.2697 34.5938 44.8438 35.169 44.8438 35.875C44.8438 36.581 44.2697 37.1562 43.5625 37.1562H34.5938V39.7188H43.5625C44.2697 39.7188 44.8438 40.294 44.8438 41C44.8438 41.706 44.2697 42.2812 43.5625 42.2812H34.5938V44.8438H43.5625C44.2697 44.8438 44.8438 45.419 44.8438 46.125C44.8438 46.831 44.2697 47.4062 43.5625 47.4062H34.5938V49.9688H41C41.7072 49.9688 42.2812 50.5428 42.2812 51.25C42.2812 51.9572 41.7072 52.5312 41 52.5312H19.2188V36.0826L19.5019 35.2369C20.0067 33.7212 21.0381 32.4336 22.4103 31.611C25.1842 29.9467 26.9075 26.9024 26.9075 23.6685V20.5013C26.9075 19.7953 27.4828 19.22 28.1888 19.22C30.308 19.22 32.0325 20.9446 32.0325 23.0638V29.47C32.0312 32.2952 34.3298 34.5938 37.1562 34.5938ZM41 21.7812C36.0557 21.7812 32.0312 17.7581 32.0312 12.8125C32.0312 7.86688 36.0557 3.84375 41 3.84375C45.9443 3.84375 49.9688 7.86688 49.9688 12.8125C49.9688 17.7581 45.9443 21.7812 41 21.7812Z" fill="#233BBF"/>
<path d="M69.1875 29.4688C62.8287 29.4688 57.6562 34.6424 57.6562 41C57.6562 47.3576 62.8287 52.5312 69.1875 52.5312C75.5463 52.5312 80.7188 47.3576 80.7188 41C80.7188 34.6424 75.5463 29.4688 69.1875 29.4688ZM69.1875 49.9688C64.2432 49.9688 60.2188 45.9456 60.2188 41C60.2188 36.0544 64.2432 32.0312 69.1875 32.0312C74.1318 32.0312 78.1562 36.0544 78.1562 41C78.1562 45.9456 74.1318 49.9688 69.1875 49.9688Z" fill="#233BBF"/>
<path d="M73.0312 37.1562V42.2812H70.4688V34.5938H67.9062V42.2812H65.3438V39.7188H62.7812V44.8438H75.5938V37.1562H73.0312Z" fill="#233BBF"/>
<path d="M39.7188 11.5312H42.2812V14.0938H39.7188V11.5312Z" fill="#233BBF"/>
<path d="M44.8438 11.5312H47.4062V14.0938H44.8438V11.5312Z" fill="#233BBF"/>
<path d="M34.5938 11.5312H37.1562V14.0938H34.5938V11.5312Z" fill="#233BBF"/>
<path d="M68.1013 23.7429L69.813 26.4706L71.7247 16.9074L69.2121 16.4039L68.5254 19.8415C65.2146 15.4596 61.0557 12.1809 55.636 9.64526L54.5508 11.9669C60.5035 14.751 64.8097 18.4936 68.1013 23.7429Z" fill="#233BBF"/>
<path d="M9.64453 26.3643L11.9674 27.4495C14.749 21.4994 18.4916 17.1931 23.7421 13.899L26.4686 12.1885L16.9067 10.2756L16.4044 12.7869L19.842 13.4749C15.4576 16.7869 12.1788 20.9459 9.64453 26.3643Z" fill="#233BBF"/>
<path d="M13.9007 58.2571L12.189 55.5293L10.2773 65.0925L12.7899 65.5961L13.4766 62.1585C16.7874 66.5404 20.9463 69.8191 26.366 72.3547L27.4525 70.033C21.4985 67.2489 17.1922 63.5064 13.9007 58.2571Z" fill="#233BBF"/>
<path d="M72.3553 55.6358L70.0324 54.5505C67.2508 60.5007 63.5083 64.8069 58.2578 68.101L55.5312 69.8115L65.0932 71.7244L65.5967 69.2119L62.1592 68.5238C66.5423 65.2131 69.821 61.0542 72.3553 55.6358Z" fill="#233BBF"/>
</svg>
