<svg width="82" height="82" viewBox="0 0 82 82" fill="none" xmlns="http://www.w3.org/2000/svg">
<rect x="12" y="10" width="70" height="70" rx="10" fill="#FFAB55" fill-opacity="0.25"/>
<path d="M34.5938 17.1675V16.9663C34.5938 14.7715 33.7392 12.7087 32.1863 11.1558C30.7769 9.74519 28.9012 8.96875 26.9062 8.96875C24.9844 8.96875 23.1727 9.69009 21.7812 11.0047C20.3898 9.69009 18.5781 8.96875 16.6562 8.96875C14.6613 8.96875 12.7856 9.74519 11.3762 11.1558C9.82334 12.7087 8.96875 14.7715 8.96875 16.9663V17.1675C8.96875 19.6505 10.0335 22.0208 11.8887 23.6698L21.7812 32.4643L31.6725 23.6711C33.529 22.0221 34.5938 19.6518 34.5938 17.1675ZM21.7812 29.0357L13.5915 21.7556C12.2821 20.5923 11.5312 18.9202 11.5312 17.1675V16.9663C11.5312 15.4557 12.1193 14.0361 13.1879 12.9675C14.1143 12.0412 15.3468 11.5313 16.6562 11.5313C17.9657 11.5313 19.1982 12.0412 20.1246 12.9675L21.7812 14.6242L23.4379 12.9675C25.2906 11.1161 28.5219 11.1161 30.3746 12.9675C31.4432 14.0361 32.0312 15.4557 32.0312 16.9663V17.1675C32.0312 18.9189 31.2804 20.5923 29.971 21.7556L21.7812 29.0357Z" fill="#233BBF"/>
<path d="M76.875 11.5312H42.2812V5.125C42.2812 3.00581 40.5567 1.28125 38.4375 1.28125H5.125C3.00581 1.28125 1.28125 3.00581 1.28125 5.125V33.3125C1.28125 35.4317 3.00581 37.1562 5.125 37.1562H16.0566L18.1925 39.7188H7.6875C5.56831 39.7188 3.84375 41.4433 3.84375 43.5625V69.1875C3.84375 71.3067 5.56831 73.0312 7.6875 73.0312H21.1816L26.6807 79.6297C27.2573 80.3216 28.1042 80.7188 29.0049 80.7188C30.6731 80.7188 32.0312 79.3606 32.0312 77.6924V73.0312H46.125C48.2442 73.0312 49.9688 71.3067 49.9688 69.1875V47.4062H52.5312V52.0674C52.5312 53.7356 53.8894 55.0938 55.5576 55.0938C56.4583 55.0938 57.3052 54.6966 57.8817 54.0047L63.3809 47.4062H76.875C78.9942 47.4062 80.7188 45.6817 80.7188 43.5625V15.375C80.7188 13.2558 78.9942 11.5312 76.875 11.5312ZM5.125 34.5938C4.41903 34.5938 3.84375 34.0197 3.84375 33.3125V5.125C3.84375 4.41775 4.41903 3.84375 5.125 3.84375H38.4375C39.1435 3.84375 39.7188 4.41775 39.7188 5.125V33.3125C39.7188 34.0197 39.1435 34.5938 38.4375 34.5938H24.3438V41.8174C24.3438 42.2133 23.7774 42.4183 23.5238 42.1134L17.2559 34.5938H5.125ZM34.5938 39.7188H26.9062V37.1562H34.5938V39.7188ZM47.4062 69.1875C47.4062 69.8948 46.831 70.4688 46.125 70.4688H29.4688V77.6924C29.4688 78.0883 28.9024 78.2933 28.6488 77.9884L22.3809 70.4688H7.6875C6.98153 70.4688 6.40625 69.8948 6.40625 69.1875V43.5625C6.40625 42.8553 6.98153 42.2812 7.6875 42.2812H20.327L21.5557 43.7547C22.1323 44.4466 22.9792 44.8438 23.8799 44.8438C25.3892 44.8438 26.6333 43.7291 26.8588 42.2812H34.5938V43.5625C34.5938 45.6817 36.3183 47.4062 38.4375 47.4062H47.4062V69.1875ZM78.1562 43.5625C78.1562 44.2697 77.581 44.8438 76.875 44.8438H62.1816L55.9137 52.3634C55.6601 52.6658 55.0938 52.4621 55.0938 52.0674V44.8438H38.4375C37.7315 44.8438 37.1562 44.2697 37.1562 43.5625V37.1562H38.4375C40.5567 37.1562 42.2812 35.4317 42.2812 33.3125V14.0938H76.875C77.581 14.0938 78.1562 14.6678 78.1562 15.375V43.5625Z" fill="#233BBF"/>
<path d="M32.0312 55.0938C32.0312 55.8535 32.2081 56.5685 32.5053 57.2168C31.9531 56.7273 31.3381 56.3097 30.6731 55.9778C31.5085 55.0656 32.0312 53.8625 32.0312 52.5312C32.0312 49.7048 29.7327 47.4062 26.9062 47.4062C24.0798 47.4062 21.7812 49.7048 21.7812 52.5312C21.7812 53.8625 22.304 55.0656 23.1394 55.9778C22.4744 56.3097 21.8594 56.7273 21.3072 57.2168C21.6044 56.5685 21.7812 55.8535 21.7812 55.0938C21.7812 52.2673 19.4827 49.9688 16.6562 49.9688C13.8298 49.9688 11.5312 52.2673 11.5312 55.0938C11.5312 56.4596 12.0758 57.6934 12.9496 58.6133C10.5793 59.9241 8.96875 62.4481 8.96875 65.3438V67.9062H11.5312V65.3438C11.5312 62.5173 13.8298 60.2188 16.6562 60.2188C17.4634 60.2188 18.2373 60.4109 18.942 60.7633C18.7396 61.3488 18.5909 61.9613 18.5192 62.6006L17.9452 67.764L20.491 68.0472L21.065 62.8838C21.3969 59.9036 23.9081 57.6562 26.9062 57.6562C29.9044 57.6562 32.4156 59.9036 32.7475 62.8838L33.3215 68.0472L35.8673 67.764L35.2933 62.6006C35.2228 61.9613 35.0729 61.3488 34.8705 60.7633C35.5752 60.4109 36.3491 60.2188 37.1562 60.2188C39.9827 60.2188 42.2812 62.5173 42.2812 65.3438V67.9062H44.8438V65.3438C44.8438 62.4481 43.2332 59.9241 40.8629 58.6133C41.7367 57.6934 42.2812 56.4596 42.2812 55.0938C42.2812 52.2673 39.9827 49.9688 37.1562 49.9688C34.3298 49.9688 32.0312 52.2673 32.0312 55.0938ZM14.0938 55.0938C14.0938 53.6805 15.243 52.5312 16.6562 52.5312C18.0695 52.5312 19.2188 53.6805 19.2188 55.0938C19.2188 56.507 18.0695 57.6562 16.6562 57.6562C15.243 57.6562 14.0938 56.507 14.0938 55.0938ZM24.3438 52.5312C24.3438 51.118 25.493 49.9688 26.9062 49.9688C28.3195 49.9688 29.4688 51.118 29.4688 52.5312C29.4688 53.9445 28.3195 55.0938 26.9062 55.0938C25.493 55.0938 24.3438 53.9445 24.3438 52.5312ZM39.7188 55.0938C39.7188 56.507 38.5695 57.6562 37.1562 57.6562C35.743 57.6562 34.5938 56.507 34.5938 55.0938C34.5938 53.6805 35.743 52.5312 37.1562 52.5312C38.5695 52.5312 39.7188 53.6805 39.7188 55.0938Z" fill="#233BBF"/>
<path d="M67.9062 24.3438H65.5744L65.8832 22.4936C66.1253 21.0368 65.7179 19.5557 64.7633 18.4295C63.8088 17.302 62.4148 16.6562 60.9388 16.6562C59.172 16.6562 57.6383 17.8542 57.2091 19.5673C56.7453 21.4251 55.7843 23.1214 54.4301 24.477L54.0521 24.855C53.6254 24.5385 53.1027 24.3438 52.5312 24.3438H47.4062C45.993 24.3438 44.8438 25.493 44.8438 26.9062V39.7188C44.8438 41.132 45.993 42.2812 47.4062 42.2812H52.5312C53.6498 42.2812 54.5915 41.5573 54.9413 40.5567C57.2142 41.6842 59.7114 42.2812 62.2752 42.2812H67.9062C70.7327 42.2812 73.0312 39.9827 73.0312 37.1562V29.4688C73.0312 26.6423 70.7327 24.3438 67.9062 24.3438ZM47.4062 39.7188V26.9062H52.5312L52.5325 39.7188H47.4062ZM70.4688 37.1562C70.4688 38.5695 69.3195 39.7188 67.9062 39.7188H62.2752C59.7319 39.7188 57.2655 39.0256 55.0938 37.7226V27.4367L56.2417 26.2887C57.924 24.6064 59.1194 22.4962 59.696 20.1887C59.8382 19.6185 60.3494 19.2188 60.9388 19.2188C61.6602 19.2188 62.3418 19.5339 62.8082 20.0862C63.2745 20.6371 63.4744 21.361 63.3553 22.0734L62.5506 26.9062H67.9062C69.3195 26.9062 70.4688 28.0555 70.4688 29.4688V37.1562Z" fill="#233BBF"/>
</svg>
