<svg width="82" height="92" viewBox="0 0 82 92" fill="none" xmlns="http://www.w3.org/2000/svg">
<rect x="12" y="22" width="70" height="70" rx="10" fill="#FFAB55" fill-opacity="0.25"/>
<path d="M17.9375 26.9062C18.6451 26.9062 19.2188 26.3326 19.2188 25.625C19.2188 24.9174 18.6451 24.3438 17.9375 24.3438C17.2299 24.3438 16.6562 24.9174 16.6562 25.625C16.6562 26.3326 17.2299 26.9062 17.9375 26.9062Z" fill="#233BBF"/>
<path d="M28.1875 26.9062C28.8951 26.9062 29.4688 26.3326 29.4688 25.625C29.4688 24.9174 28.8951 24.3438 28.1875 24.3438C27.4799 24.3438 26.9062 24.9174 26.9062 25.625C26.9062 26.3326 27.4799 26.9062 28.1875 26.9062Z" fill="#233BBF"/>
<path d="M16.6562 30.75C16.6562 34.2824 19.5301 37.1562 23.0625 37.1562C26.5949 37.1562 29.4688 34.2824 29.4688 30.75V29.4688H16.6562V30.75ZM26.6872 32.0312C26.158 33.5226 24.7332 34.5938 23.0625 34.5938C21.3917 34.5938 19.967 33.5226 19.4378 32.0312H26.6872Z" fill="#233BBF"/>
<path d="M26.9058 21.7812H29.4683V21.5621C29.4683 18.883 28.4254 16.3641 26.5304 14.4691L24.7188 16.2808C26.1294 17.6915 26.9058 19.5659 26.9058 21.5621V21.7812Z" fill="#233BBF"/>
<path d="M81.672 38.4375L65.3438 27.0075V32.0312H40.9667C41.7803 30.9576 42.2812 29.6353 42.2812 28.1875C42.2812 25.8185 40.9731 23.7685 39.0563 22.6602L39.3997 20.9408C39.5137 20.3719 39.5919 19.7966 39.6444 19.2188H65.3438V24.2425L81.672 12.8125L65.3438 1.38247V6.40625H35.1767C32.1799 3.25694 27.962 1.28125 23.2816 1.28125C19.5775 1.28125 16.0912 2.69191 13.3737 5.31719C9.13147 7.12631 6.40625 11.2378 6.40625 15.8683V17.0944C6.40625 17.7261 6.45878 18.3603 6.56256 18.9804L7.16731 22.6077C5.19675 23.7006 3.84375 25.7787 3.84375 28.1875V41C3.84375 44.5324 6.71759 47.4062 10.25 47.4062H11.6261C5.32872 51.2423 1.28125 58.129 1.28125 65.8165V78.1562H35.6905L37.2203 79.6861L39.615 77.3696L39.7008 77.4759L39.7188 80.7188H47.4062L47.4754 77.3849L47.5972 77.4042L47.6138 77.3965L49.9047 79.6861L55.3423 74.2484L53.0514 71.9576C53.0232 71.9294 53.022 71.882 53.0322 71.8422L53.1386 71.75H56.375V70.4688H65.3438V75.4925L81.672 64.0625L65.3438 52.6325V57.6562H51.4358L49.906 56.1264L47.5113 58.4429L47.4255 58.3366L47.4062 55.0938H41.9597C39.1819 50.2583 34.6412 46.6862 29.2945 45.1269L29.2381 44.8438H65.3438V49.8675L81.672 38.4375ZM35.875 32.0312H34.5938V24.3438H35.875C37.9942 24.3438 39.7188 26.0683 39.7188 28.1875C39.7188 30.3067 37.9942 32.0312 35.875 32.0312ZM67.9062 8.96875V6.30503L77.203 12.8125L67.9062 19.32V16.6562H39.6649C39.4843 13.8426 38.5977 11.2238 37.1716 8.96875H67.9062ZM9.09047 18.5576C9.00975 18.0772 8.96875 17.5839 8.96875 17.0944V15.8683C8.96875 12.2039 11.1674 8.95594 14.5704 7.59525L14.8792 7.43253L15.0649 7.24675C17.2597 5.05197 20.1784 3.84375 23.2816 3.84375C30.9319 3.84375 37.1562 10.0681 37.1562 17.7184C37.1562 18.6281 37.0653 19.5442 36.8872 20.4398L36.604 21.8556C36.3619 21.8274 36.1248 21.7812 35.875 21.7812H34.5938V21.5622C34.5938 18.8831 33.5508 16.3641 31.6558 14.4692L29.8442 16.2808C31.2548 17.6915 32.0312 19.566 32.0312 21.5622V33.3125C32.0312 36.8449 29.1574 39.7188 25.625 39.7188H20.5C16.9676 39.7188 14.0938 36.8449 14.0938 33.3125V23.0625C14.0938 19.7108 16.6819 16.9509 19.9644 16.678C21.1406 18.0349 21.7812 19.7492 21.7812 21.5622V21.7812H24.3438V21.5622C24.3438 18.8831 23.3008 16.3641 21.4058 14.4692L21.0304 14.0938H20.5C15.9913 14.0938 12.259 17.4417 11.6337 21.7812H10.25C10.0399 21.7812 9.84256 21.8235 9.63756 21.8428L9.09047 18.5576ZM17.7966 47.487L20.6358 48.9066L18.3065 50.6542L16.6306 47.8611C17.0137 47.7278 17.3994 47.5959 17.7966 47.487ZM21.6467 55.0938H24.4783L26.7563 75.5938H19.3687L21.6467 55.0938ZM24.7012 52.5312H21.4225L21.1522 51.7202L23.0625 50.2891L24.9716 51.7215L24.7012 52.5312ZM25.4892 48.9066L28.3284 47.487C28.7231 47.5959 29.1036 47.7394 29.488 47.8726L27.8198 50.6542L25.4892 48.9066ZM26.7397 45.4165L23.0625 47.2551L19.3853 45.4165L20.017 42.2569C20.1784 42.2659 20.3373 42.2812 20.5 42.2812H25.625C25.7877 42.2812 25.9466 42.2659 26.1067 42.2569L26.7397 45.4165ZM10.25 24.3438H11.5312V32.0312H10.25C8.13081 32.0312 6.40625 30.3067 6.40625 28.1875C6.40625 26.0683 8.13081 24.3438 10.25 24.3438ZM8.96875 43.5625C8.96875 43.9507 9.02641 44.3248 9.13403 44.6785C7.55681 44.1993 6.40625 42.7323 6.40625 41V33.2792C7.47994 34.0928 8.80219 34.5938 10.25 34.5938H11.6337C11.9207 36.5887 12.8586 38.3722 14.236 39.7188H12.8125C10.6933 39.7188 8.96875 41.4433 8.96875 43.5625ZM12.8125 42.2812H15.375C16.081 42.2812 16.6562 42.8565 16.6562 43.5625C16.6562 44.2685 16.081 44.8438 15.375 44.8438H12.8125C12.1065 44.8438 11.5312 44.2685 11.5312 43.5625C11.5312 42.8565 12.1065 42.2812 12.8125 42.2812ZM3.84375 65.8165C3.84375 58.5301 7.96809 52.0597 14.2488 48.8746L17.5685 54.4083L18.992 53.341L19.1957 53.9509L16.7908 75.5938H11.5312V62.7812H8.96875V75.5938H3.84375V65.8165ZM67.9062 60.2188V57.555L77.203 64.0625L67.9062 70.57V67.9062H56.375V64.0625L53.0412 63.9933L53.0604 63.8716L53.0527 63.8549L55.3436 61.5641L53.9983 60.2188H67.9062ZM46.5183 60.8056C47.5216 61.2207 48.6619 60.9939 49.4268 60.229L49.906 59.7498L51.7202 61.5641L51.241 62.0433C50.4774 62.8069 50.2506 63.9485 50.6709 64.9658C51.0834 65.9741 52.0521 66.625 53.1386 66.625H53.8125V69.1875H53.1386C52.2878 69.1875 51.4819 69.5988 50.9797 70.2907C50.9374 70.347 50.7247 70.6533 50.603 71.0222V71.0248C50.2814 72.005 50.5261 73.0569 51.241 73.7705L51.7202 74.2497L49.906 76.064L49.4268 75.5861C48.6632 74.8224 47.5228 74.5957 46.5043 75.0159C45.4946 75.4272 44.8438 76.3958 44.8438 77.4823V78.1562H42.2812V77.4823C42.2812 76.3958 41.6304 75.4272 40.6067 75.0069C39.6034 74.5905 38.4618 74.8199 37.6982 75.5835L37.219 76.0614L35.4048 74.2472L35.884 73.768C36.6489 73.0043 36.8744 71.8615 36.4541 70.8454C36.0416 69.8384 35.0729 69.1875 33.9864 69.1875H33.3125V66.625H33.9864C35.0729 66.625 36.0416 65.9741 36.4618 64.9504C36.8757 63.9472 36.6489 62.8056 35.8853 62.042L35.4061 61.5628L37.2203 59.7485L37.6995 60.2277C38.4644 60.9913 39.606 61.2168 40.622 60.7979C41.6304 60.3853 42.2812 59.4167 42.2812 58.3302V57.6562H44.8438V58.3302C44.8438 59.4167 45.4946 60.3853 46.5183 60.8056ZM39.6944 56.2879L39.6496 58.4276L39.5278 58.4083L39.5112 58.416L37.2203 56.1252L31.7827 61.5628L34.0992 63.9574L33.9928 64.0433L30.75 64.0625V71.75L34.0838 71.8192L34.0646 71.9409L34.0723 71.9576L31.7814 74.2484L33.1267 75.5938H29.3329L26.928 53.9509L27.1318 53.341L28.5552 54.4083L31.8788 48.8682C35.1255 50.521 37.8404 53.0976 39.6944 56.2879ZM28.7256 42.2812L28.6206 41.7559C31.7058 40.6579 34.0133 37.9212 34.4925 34.5938H67.9062V31.93L77.203 38.4375L67.9062 44.945V42.2812H28.7256Z" fill="#233BBF"/>
<path d="M38.4375 67.9062C38.4375 70.7327 40.7361 73.0312 43.5625 73.0312C46.3889 73.0312 48.6875 70.7327 48.6875 67.9062C48.6875 65.0798 46.3889 62.7812 43.5625 62.7812C40.7361 62.7812 38.4375 65.0798 38.4375 67.9062ZM46.125 67.9062C46.125 69.3195 44.9757 70.4688 43.5625 70.4688C42.1493 70.4688 41 69.3195 41 67.9062C41 66.493 42.1493 65.3438 43.5625 65.3438C44.9757 65.3438 46.125 66.493 46.125 67.9062Z" fill="#233BBF"/>
</svg>
