<svg width="96" height="96" viewBox="0 0 96 96" fill="none" xmlns="http://www.w3.org/2000/svg">
<g clip-path="url(#clip0)">
<path d="M79.9995 69.1773L75.9245 66.7359C74.6823 65.993 73.2612 65.6008 71.8135 65.6H65.6807C64.4252 65.5977 63.1752 65.7594 61.9612 66.0797L43.4831 71.0398C41.4627 71.5977 39.8401 73.1023 39.1323 75.075L22.8791 66.282C21.5612 65.532 20.0182 65.2773 18.5291 65.5633C17.9674 65.6625 17.4229 65.8414 16.9112 66.0945C15.7557 66.6477 14.7971 67.5414 14.1627 68.6547C13.6081 69.6242 13.3166 70.7219 13.3166 71.8383C13.2995 74.118 14.5073 76.2305 16.4791 77.3727L45.6088 94.8016C46.8745 95.5852 48.3323 96 49.8206 96H72.3643C73.3713 96.0008 74.369 95.8102 75.3049 95.4398L79.9995 93.5859V96H95.9995V64H79.9995V69.1773ZM74.1291 92.4641C73.569 92.6852 72.9713 92.7992 72.369 92.8H49.8206C48.919 92.7992 48.0354 92.5453 47.2713 92.0672L18.1018 74.618C17.1104 74.0453 16.5034 72.9844 16.5112 71.8398C16.5135 71.2789 16.6612 70.7273 16.9401 70.2398C17.2588 69.6875 17.7385 69.2445 18.3143 68.9711C18.5682 68.8477 18.837 68.7602 19.1143 68.7117C19.3166 68.6742 19.5221 68.6547 19.7276 68.6547C20.2776 68.6531 20.8182 68.7969 21.2956 69.0703L38.9198 78.5938C38.9401 78.6914 38.9401 78.7875 38.9659 78.8852C39.7237 81.6781 42.2573 83.618 45.1518 83.6211C46.0424 83.5398 46.9245 83.382 47.7885 83.1508L64.412 78.7023L63.587 75.6109L47.0174 80.0398C46.2877 80.2078 45.3463 80.4 45.1518 80.4164C43.7065 80.4188 42.4393 79.4531 42.0588 78.0594C42.0073 77.8656 41.9768 77.6672 41.9659 77.4672C41.9659 77.4672 41.9534 77.0797 41.9659 76.9438C42.0877 75.6055 43.0252 74.482 44.3198 74.1219L62.7901 69.1805C63.7331 68.9281 64.7049 68.8 65.6807 68.8H71.8135C72.6823 68.8 73.5346 69.0359 74.2791 69.482L79.9995 72.907V90.1438L74.1291 92.4641ZM83.1995 67.2H92.7995V92.8H83.1995V67.2Z" fill="#FFAB55"/>
<path d="M65.9906 12.7998L57.4078 4.21778C54.7133 1.50763 51.0469 -0.011123 47.2258 -0.000185472H27.1102C25.8687 0.00137703 24.6445 0.291221 23.5328 0.844346L19.9469 2.6381C19.2281 2.99981 18.4297 3.17247 17.6258 3.14044L16 3.08341V-0.000185472H0V35.1998H16V30.3998H18.7203L19.6883 31.0397C22.3969 32.8381 25.5508 33.8537 28.8 33.9725V54.3998H96V12.7998H65.9906ZM12.8 31.9998H3.2V3.19981H12.8V31.9998ZM21.4594 28.3772L19.6797 27.1998H16V6.28497L17.5086 6.33888C18.8484 6.38653 20.1781 6.09825 21.3773 5.5006L24.9602 3.70685C25.6273 3.37325 26.3641 3.19981 27.1102 3.19981H47.2258C50.1977 3.19122 53.05 4.37247 55.1453 6.4795L61.4656 12.7998H48.2625L44.3789 8.917L42.1172 11.1787L53.4195 22.4818C54.675 23.7318 54.6789 25.7631 53.4289 27.0193C52.1781 28.2748 50.1469 28.2787 48.8914 27.0287L39.4516 17.5889L38.3312 18.549C35.2383 21.1756 30.7172 21.2428 27.5469 18.7084L26.6195 17.9568L24.6031 20.4428L25.5406 21.2029C26.5211 21.9865 27.6219 22.6068 28.8 23.0397V30.7709C26.1812 30.6545 23.643 29.8272 21.4594 28.3772ZM44.2195 26.8795L46.6336 29.2943C49.1398 31.7631 53.1633 31.767 55.6734 29.3022C53.325 32.9389 54.2516 37.7787 57.7773 40.2904C61.3031 42.8022 66.1805 42.0967 68.85 38.6897C71.5195 35.2818 71.0375 30.3772 67.7547 27.5553C64.4727 24.7334 59.5508 24.992 56.5828 28.142C57.6758 26.4256 57.8711 24.2865 57.107 22.3998H78.5328C79.2211 26.4256 82.3742 29.5787 86.4 30.267V36.9326C82.3742 37.6209 79.2211 40.774 78.5328 44.7998H46.2672C45.5789 40.774 42.4258 37.6209 38.4 36.9326V30.267C40.6867 29.8818 42.7547 28.6779 44.2195 26.8795ZM57.6 33.5998C57.6 30.949 59.7492 28.7998 62.4 28.7998C65.0508 28.7998 67.2 30.949 67.2 33.5998C67.2 36.2506 65.0508 38.3998 62.4 38.3998C59.7492 38.3998 57.6 36.2506 57.6 33.5998ZM92.8 51.1998H32V23.71C34.5367 23.9006 37.0656 23.2537 39.2 21.8701L41.9297 24.5998C40.7289 26.2311 38.8258 27.1959 36.8 27.1998H35.2V39.9998H36.8C40.3344 39.9998 43.2 42.8654 43.2 46.3998V47.9998H81.6V46.3998C81.6 42.8654 84.4656 39.9998 88 39.9998H89.6V27.1998H88C84.4656 27.1998 81.6 24.3342 81.6 20.7998V19.1998H54.6625L51.4625 15.9998H92.8V51.1998Z" fill="#FFAB55"/>
</g>
<defs>
<clipPath id="clip0">
<rect width="96" height="96" fill="white"/>
</clipPath>
</defs>
</svg>
