<svg width="24" height="24" viewBox="0 0 24 24" fill="none" xmlns="http://www.w3.org/2000/svg">
<path d="M22.9841 8.74051C22.5925 8.35101 21.9593 8.35275 21.5698 8.7443L9.54855 20.8306C7.98893 22.3902 5.45589 22.3902 3.89337 20.8285C2.33202 19.2663 2.33202 16.7333 3.89356 15.1718L16.2707 2.72963C17.2444 1.75597 18.8274 1.75597 19.804 2.73174C20.7802 3.70798 20.7802 5.29085 19.8037 6.26737L9.55042 16.5206C9.54977 16.5212 9.5492 16.522 9.54855 16.5226C9.15793 16.9111 8.52665 16.9106 8.13683 16.5208C7.74635 16.1303 7.74635 15.4974 8.13683 15.1069L13.086 10.1567C13.4765 9.76615 13.4764 9.13295 13.0859 8.74247C12.6953 8.352 12.0621 8.35204 11.6716 8.74261L6.72248 13.6927C5.551 14.8642 5.551 16.7634 6.72258 17.935C7.8941 19.1065 9.79333 19.1065 10.9649 17.935C10.9663 17.9336 10.9673 17.9322 10.9687 17.9308L21.2179 7.68153C22.9755 5.92396 22.9755 3.07473 21.2179 1.31716C19.4601 -0.439379 16.6111 -0.439379 14.8545 1.31716L2.47743 13.7594C0.136719 16.1001 0.136718 19.8992 2.47912 22.2427C4.82306 24.5855 8.62218 24.5855 10.9647 22.2429L22.9879 10.1548C23.3774 9.76315 23.3756 9.13 22.9841 8.74051Z" fill="white"/>
</svg>
