<svg width="1800" height="1831" viewBox="0 0 1800 1831" fill="none" xmlns="http://www.w3.org/2000/svg">
<path fill-rule="evenodd" clip-rule="evenodd" d="M1091.88 166.447L1069.81 179.183L1047.73 166.447L1043.75 130.742L1069.81 120.849L1095.86 130.742L1091.88 166.447ZM1069.81 117L1040 128.319L1044.5 168.716L1069.81 183.315L1095.12 168.716L1099.61 128.319L1069.81 117H1069.81Z" fill="#FFAB55" fill-opacity="0.15"/>
<path fill-rule="evenodd" clip-rule="evenodd" d="M1063.24 152.042L1070.26 134.323L1077.28 152.042H1063.24H1063.24ZM1053.83 164.818H1058.18L1061.79 155.718L1078.74 155.718L1082.34 164.819L1086.69 164.818L1070.26 126.754L1053.83 164.818Z" fill="#FFAB55" fill-opacity="0.15"/>
<path fill-rule="evenodd" clip-rule="evenodd" d="M282.884 458.447L260.807 471.183L238.73 458.447L234.753 422.742L260.807 412.849L286.862 422.742L282.884 458.447ZM260.807 409L231 420.319L235.501 460.715L260.809 475.315L286.115 460.715L290.615 420.319L260.809 409H260.807Z" fill="#FFAB55" fill-opacity="0.15"/>
<path fill-rule="evenodd" clip-rule="evenodd" d="M254.244 444.043L261.261 426.323L268.281 444.043H254.246H254.244ZM244.835 456.819H249.184L252.789 447.718L269.736 447.719L273.34 456.819L277.688 456.819L261.261 418.755L244.835 456.819Z" fill="#FFAB55" fill-opacity="0.15"/>
<path fill-rule="evenodd" clip-rule="evenodd" d="M906.987 518.357H957.427V465.305H906.987V518.357ZM903.55 521.975H960.866V461.688H903.55V521.975Z" fill="#FFAB55" fill-opacity="0.15"/>
<path fill-rule="evenodd" clip-rule="evenodd" d="M948.215 509.689C947.799 510.014 947.326 510.262 946.822 510.421C944.743 511.053 941.8 510.797 939.778 508.175C939.637 507.993 939.498 507.801 939.366 507.613L936.6 509.298C937.25 510.388 938.138 511.323 939.19 512.034C940.492 512.913 941.965 513.428 943.694 513.609C945.521 513.802 947.131 513.641 948.613 513.117C950.297 512.524 951.486 511.553 952.243 510.149C952.82 509.083 953.063 507.869 953.004 506.333C952.924 504.238 952.164 502.609 950.678 501.353C949.565 500.409 948.289 499.726 946.716 498.991C946.445 498.864 946.171 498.737 945.898 498.614C945.172 498.292 944.437 497.936 943.731 497.574C943.168 497.273 942.648 496.896 942.192 496.454C941.39 495.681 941.032 494.344 941.3 493.126C941.543 491.94 942.42 490.983 943.581 490.639C944.34 490.406 945.162 490.398 946.024 490.621C946.997 490.871 947.814 491.485 948.515 492.493L951.082 490.759C950.284 489.539 949.346 488.704 948.234 488.225C946.496 487.473 944.601 487.344 942.604 487.842C940.817 488.287 939.526 489.254 938.657 490.802C938.044 491.894 937.791 493.163 937.882 494.681C937.995 496.534 938.64 498.007 939.856 499.181C940.948 500.239 942.299 500.945 943.476 501.494L944.154 501.809C945.121 502.26 946.123 502.726 947.097 503.224C947.622 503.493 948.129 503.869 948.566 504.314C949.278 505.04 949.651 506.049 949.583 507.081C949.521 508.107 949.023 509.057 948.215 509.69V509.689ZM920.747 512.931C922.85 513.881 925.083 513.967 927.378 513.184C929.144 512.585 930.308 511.352 930.94 509.416C931.256 508.446 931.397 507.374 931.397 505.941V487.906L927.957 487.906V491.04C927.957 495.984 927.957 500.927 927.952 505.871C927.952 506.447 927.915 506.996 927.841 507.506C927.77 507.993 927.556 509.478 926.229 510.165C924.731 510.937 923.229 510.873 921.881 509.978C921.211 509.535 920.782 508.917 920.416 508.317L920.313 508.147L917.556 509.902C918.367 511.337 919.415 512.33 920.749 512.932L920.747 512.931Z" fill="#FFAB55" fill-opacity="0.15"/>
<path fill-rule="evenodd" clip-rule="evenodd" d="M1538.35 553.43L1518.62 559.001L1498.96 553.44L1494.41 501.397H1542.91L1538.35 553.429V553.43ZM1490.62 497.861L1495.72 556.192L1518.63 562.669L1541.59 556.182L1546.7 497.861H1490.62Z" fill="#FFAB55" fill-opacity="0.15"/>
<path fill-rule="evenodd" clip-rule="evenodd" d="M1504.58 529.606H1529.23L1528.13 542.116L1518.7 544.744L1518.17 544.601L1509.15 542.12L1508.68 536.806H1505.21L1505.91 544.817L1518.63 548.416L1531.37 544.817L1533.01 526.075H1507.74L1506.78 515.127H1533.97L1534.28 511.596L1503 511.595L1504.58 529.606Z" fill="#FFAB55" fill-opacity="0.15"/>
<path fill-rule="evenodd" clip-rule="evenodd" d="M1304.82 375.779L1290.65 380.913V398.288L1304.82 403.423L1323.93 403.423L1338.1 398.289V380.914L1323.93 375.779L1304.82 375.779ZM1305.38 385.016L1297.64 382.21L1305.39 379.402L1323.37 379.404L1331.11 382.21L1323.36 385.018L1305.38 385.016ZM1323.92 388.641L1334.69 384.742V395.696L1334.66 395.705L1323.36 399.8L1305.38 399.798L1294.06 395.697V384.743L1294.11 384.757L1304.82 388.641H1323.93H1323.92Z" fill="#FFAB55" fill-opacity="0.15"/>
<path fill-rule="evenodd" clip-rule="evenodd" d="M1334.68 412.325L1334.66 412.334L1323.35 416.429L1305.38 416.428L1294.06 412.325V403.297L1290.65 402.061V414.917L1304.82 420.052L1323.92 420.052L1338.09 414.919V402.061L1334.68 403.297L1334.68 412.325Z" fill="#FFAB55" fill-opacity="0.15"/>
<path fill-rule="evenodd" clip-rule="evenodd" d="M1334.68 428.339L1334.66 428.346L1323.35 432.442L1305.38 432.441L1294.06 428.338V419.309L1290.65 418.073V430.931L1304.82 436.065L1323.92 436.066L1338.09 430.931V418.075L1334.68 419.309L1334.68 428.339Z" fill="#FFAB55" fill-opacity="0.15"/>
<path fill-rule="evenodd" clip-rule="evenodd" d="M1222.21 631.075L1223.92 628.116L1208.52 628.46L1208.46 631.381L1217.28 631.185L1212.48 639.505L1193.25 639.932L1190.69 644.369L1214.85 643.83L1215.48 642.737L1222.21 631.075H1222.21ZM1173.17 632.666L1180.93 619.218L1183.48 619.161L1183.43 621.658L1177.12 632.587L1173.17 632.666ZM1187.77 618.489L1187.8 616.921L1187.8 616.919L1187.81 616.146L1182.64 616.263H1182.64L1177.7 616.373L1166.54 635.713L1175.42 635.54L1174.56 637.034L1179.49 636.925L1190.15 618.438L1187.77 618.488L1187.77 618.489Z" fill="#FFAB55" fill-opacity="0.15"/>
<path fill-rule="evenodd" clip-rule="evenodd" d="M1159.57 632.992L1147.23 633.263L1154.99 619.807L1167.33 619.533L1159.57 632.992L1159.57 632.992ZM1205.21 605.509L1208.85 599.198L1206.09 597.604L1206.09 597.596L1195.17 591.286L1195.16 591.295V591.293L1165.24 591.956V591.971L1165.24 591.968L1162.6 596.54L1162.6 596.537L1160.04 600.976L1168.59 616.584L1151.77 616.959L1149.21 621.39L1149.21 621.39L1145.7 627.482L1145.69 627.482L1140.59 636.332L1162.79 635.842L1172.27 619.426L1174.19 619.381L1175.9 616.423L1173.52 616.474L1164.97 600.869L1167.62 596.287L1193.93 595.699L1202.98 600.924L1200.27 605.618L1183.7 605.987L1181.14 610.425L1202.65 609.946L1205.21 605.508L1205.2 605.507L1205.21 605.509ZM1195.08 621.913L1198.54 615.911L1193.61 616.025L1190.85 620.809L1190.58 633.801L1187.02 633.881L1187.1 630.121L1184.91 633.911L1184.9 633.912L1183.21 636.845L1194.78 636.586L1195.08 621.913ZM1206.73 636.318L1207.04 621.628L1210.49 615.644L1205.56 615.754L1202.8 620.537L1202.53 633.516L1198.97 633.595L1199.05 629.841L1196.18 634.817L1195.16 636.578L1206.73 636.318Z" fill="#FFAB55" fill-opacity="0.15"/>
<path fill-rule="evenodd" clip-rule="evenodd" d="M664.601 723.573L644.876 729.143L625.215 723.582L620.661 671.539L669.159 671.54L664.601 723.572V723.573ZM616.868 668.004L621.974 726.334L644.876 732.812L667.842 726.325L672.952 668.004H616.868Z" fill="#FFAB55" fill-opacity="0.15"/>
<path fill-rule="evenodd" clip-rule="evenodd" d="M628.785 684.303H657.561L656.528 696.089L638.22 696.09L638.532 699.624L656.224 699.622L655.04 713.036L645.534 715.651L645.033 715.856L644.389 715.686L634.779 713.042L634.287 707.442H630.807L631.533 715.737L644.9 719.517L658.283 715.737L661.348 680.771L628.472 680.77L628.785 684.303Z" fill="#FFAB55" fill-opacity="0.15"/>
<path d="M1365.13 205.085L1355.18 189.548H1311.23L1301.92 205.062L1333.2 238.332L1365.13 205.083V205.085ZM1331.63 243.126L1297.62 206.954C1297.22 206.524 1297 205.958 1297 205.371C1297 204.95 1297.11 204.536 1297.33 204.175L1308.19 186.089C1308.57 185.435 1309.27 185.032 1310.03 185.027L1356.35 185.028C1357.07 185.028 1357.75 185.406 1358.15 186.034L1369.73 204.12C1369.96 204.494 1370.09 204.929 1370.09 205.372C1370.09 205.967 1369.86 206.541 1369.46 206.974L1334.72 243.146C1334.32 243.568 1333.76 243.807 1333.18 243.807C1332.59 243.807 1332.03 243.561 1331.63 243.129V243.126Z" fill="#FFAB55" fill-opacity="0.15"/>
<path fill-rule="evenodd" clip-rule="evenodd" d="M1318.66 201.241L1332.31 185.733C1332.71 185.268 1333.29 185 1333.91 185C1334.54 185 1335.14 185.284 1335.54 185.772L1348.38 201.048L1354.73 186.692C1355.23 185.558 1356.52 185.063 1357.61 185.586C1358.7 186.109 1359.18 187.452 1358.68 188.585L1352.26 203.087H1368.65V207.609H1350.25L1335.65 240.591C1335.9 241.634 1335.41 242.747 1334.44 243.205C1334.16 243.335 1333.85 243.403 1333.54 243.403C1332.87 243.403 1332.24 243.084 1331.84 242.542C1331.32 242.11 1331.02 241.469 1331.01 240.794L1316.65 207.609H1298.45V203.087H1314.69L1308.41 188.567C1307.92 187.428 1308.4 186.09 1309.5 185.577C1310.59 185.064 1311.88 185.57 1312.37 186.71L1318.66 201.241ZM1344.32 203.087L1333.87 190.65L1322.92 203.087H1344.32ZM1321.41 207.609L1333.3 235.089L1345.47 207.609H1321.41Z" fill="#FFAB55" fill-opacity="0.15"/>
<path fill-rule="evenodd" clip-rule="evenodd" d="M951.884 804.447L929.807 817.183L907.73 804.447L903.753 768.742L929.807 758.849L955.862 768.742L951.884 804.447ZM929.807 755L900 766.319L904.501 806.715L929.809 821.315L955.115 806.715L959.615 766.319L929.809 755H929.807Z" fill="#FFAB55" fill-opacity="0.15"/>
<path fill-rule="evenodd" clip-rule="evenodd" d="M923.244 790.043L930.261 772.323L937.281 790.043H923.246H923.244ZM913.835 802.819H918.184L921.789 793.718L938.736 793.719L942.34 802.819L946.688 802.819L930.261 764.755L913.835 802.819Z" fill="#FFAB55" fill-opacity="0.15"/>
<path fill-rule="evenodd" clip-rule="evenodd" d="M1675.99 658.357H1726.43V605.305H1675.99V658.357ZM1672.55 661.975H1729.87V601.688H1672.55V661.975Z" fill="#FFAB55" fill-opacity="0.15"/>
<path fill-rule="evenodd" clip-rule="evenodd" d="M1717.22 649.689C1716.8 650.014 1716.33 650.262 1715.82 650.421C1713.74 651.053 1710.8 650.797 1708.78 648.175C1708.64 647.993 1708.5 647.801 1708.37 647.613L1705.6 649.298C1706.25 650.388 1707.14 651.323 1708.19 652.034C1709.49 652.913 1710.97 653.428 1712.69 653.609C1714.52 653.802 1716.13 653.641 1717.61 653.117C1719.3 652.524 1720.49 651.553 1721.24 650.149C1721.82 649.083 1722.06 647.869 1722 646.333C1721.92 644.238 1721.16 642.609 1719.68 641.353C1718.57 640.409 1717.29 639.726 1715.72 638.991C1715.44 638.864 1715.17 638.737 1714.9 638.614C1714.17 638.292 1713.44 637.936 1712.73 637.574C1712.17 637.273 1711.65 636.896 1711.19 636.454C1710.39 635.681 1710.03 634.344 1710.3 633.126C1710.54 631.94 1711.42 630.983 1712.58 630.639C1713.34 630.406 1714.16 630.398 1715.02 630.621C1716 630.871 1716.81 631.485 1717.51 632.493L1720.08 630.759C1719.28 629.539 1718.35 628.704 1717.23 628.225C1715.5 627.473 1713.6 627.344 1711.6 627.842C1709.82 628.287 1708.53 629.254 1707.66 630.802C1707.04 631.894 1706.79 633.163 1706.88 634.681C1707 636.534 1707.64 638.007 1708.86 639.181C1709.95 640.239 1711.3 640.945 1712.48 641.494L1713.15 641.809C1714.12 642.26 1715.12 642.726 1716.1 643.224C1716.62 643.493 1717.13 643.869 1717.57 644.314C1718.28 645.04 1718.65 646.049 1718.58 647.081C1718.52 648.107 1718.02 649.057 1717.22 649.69V649.689ZM1689.75 652.931C1691.85 653.881 1694.08 653.967 1696.38 653.184C1698.14 652.585 1699.31 651.352 1699.94 649.416C1700.26 648.446 1700.4 647.374 1700.4 645.941V627.906L1696.96 627.906V631.04C1696.96 635.984 1696.96 640.927 1696.95 645.871C1696.95 646.447 1696.91 646.996 1696.84 647.506C1696.77 647.993 1696.56 649.478 1695.23 650.165C1693.73 650.937 1692.23 650.873 1690.88 649.978C1690.21 649.535 1689.78 648.917 1689.42 648.317L1689.31 648.147L1686.56 649.902C1687.37 651.337 1688.42 652.33 1689.75 652.932L1689.75 652.931Z" fill="#FFAB55" fill-opacity="0.15"/>
<path fill-rule="evenodd" clip-rule="evenodd" d="M648.297 395.512H703.411V391.896H648.297V395.512ZM648.297 438.919H703.411V399.13H648.297V438.919ZM644.922 388.278V442.536L706.785 442.536V388.279L644.922 388.278Z" fill="#FFAB55" fill-opacity="0.15"/>
<path fill-rule="evenodd" clip-rule="evenodd" d="M653.92 412.996H657.295V405.761H653.92V412.996Z" fill="#FFAB55" fill-opacity="0.15"/>
<path fill-rule="evenodd" clip-rule="evenodd" d="M1625.62 124.797L1620.71 129.837H1597.6V133.504H1609.72V141.1L1604.81 146.14H1590.39L1585.48 141.1V126.314L1592.38 119.238L1604.31 119.239L1613.3 109.925V104.973H1620.71L1625.62 110.012V124.797ZM1574.49 129.837L1569.58 124.797V110.011L1574.49 104.973L1597.6 104.973V101.305H1585.48V93.7087L1590.39 88.6685H1604.81L1609.72 93.7087V108.416L1602.82 115.57H1590.9L1581.9 124.797V129.838L1574.49 129.837ZM1622.19 101.305H1613.3V92.1895L1606.29 85H1588.91L1581.9 92.1895V101.305H1573.01L1566 108.494V126.317L1573.01 133.506L1581.9 133.506V142.619L1588.91 149.809H1606.29L1613.3 142.619V133.504H1622.19L1629.2 126.314V108.495L1622.19 101.306L1622.19 101.305Z" fill="#FFAB55" fill-opacity="0.15"/>
<path fill-rule="evenodd" clip-rule="evenodd" d="M1589.85 97.0244H1593.42V92.9491L1589.85 92.9486V97.0244ZM1601.77 141.861H1605.35V137.785H1601.77V141.861Z" fill="#FFAB55" fill-opacity="0.15"/>
<path fill-rule="evenodd" clip-rule="evenodd" d="M472.529 357.33L452.804 362.9L433.143 357.339L428.59 305.296H477.087L472.529 357.328V357.33ZM424.797 301.76L429.902 360.091L452.804 366.569L475.771 360.082L480.881 301.76H424.797Z" fill="#FFAB55" fill-opacity="0.15"/>
<path fill-rule="evenodd" clip-rule="evenodd" d="M438.754 333.506H463.405L462.305 346.015L452.882 348.643L452.348 348.5L443.329 346.02L442.862 340.705H439.385L440.085 348.716L452.807 352.315L465.545 348.716L467.187 329.974H441.922L440.964 319.026H468.147L468.459 315.495H437.176L438.754 333.506Z" fill="#FFAB55" fill-opacity="0.15"/>
<path fill-rule="evenodd" clip-rule="evenodd" d="M791.733 591.57L772.007 597.14L752.347 591.579L747.793 539.536H796.291L791.733 591.568V591.57ZM744 536L749.105 594.331L772.007 600.809L794.974 594.322L800.084 536H744Z" fill="#FFAB55" fill-opacity="0.15"/>
<path fill-rule="evenodd" clip-rule="evenodd" d="M757.957 567.746H782.608L781.509 580.255L772.086 582.883L771.551 582.74L762.532 580.259L762.065 574.945H758.588L759.288 582.956L772.01 586.555L784.748 582.956L786.39 564.214H761.125L760.167 553.266H787.35L787.662 549.735H756.379L757.957 567.746Z" fill="#FFAB55" fill-opacity="0.15"/>
<path fill-rule="evenodd" clip-rule="evenodd" d="M160.374 103.234H215.488V99.6172H160.374V103.234ZM160.374 146.641H215.488V106.852H160.374V146.641ZM157 96V150.258H218.862V96H157Z" fill="#FFAB55" fill-opacity="0.15"/>
<path fill-rule="evenodd" clip-rule="evenodd" d="M165.998 120.718H169.372V113.483H165.998V120.718Z" fill="#FFAB55" fill-opacity="0.15"/>
<path fill-rule="evenodd" clip-rule="evenodd" d="M239.621 715.337L234.707 720.377H211.599V724.044H223.722V731.64L218.808 736.68H204.392L199.478 731.64V716.854L206.377 709.778H218.308L227.298 700.464V695.513H234.707L239.621 700.551V715.337ZM188.493 720.377L183.579 715.337V700.551L188.493 695.513H211.6V691.844H199.478V684.248L204.392 679.208L218.808 679.208L223.723 684.249V698.956L216.816 706.11L204.896 706.11L195.9 715.337V720.377H188.493ZM236.186 691.844H227.299V682.729L220.289 675.54H202.91L195.9 682.729V691.845L187.012 691.844L180 699.034V716.856L187.009 724.046H195.897V733.159L202.911 740.349H220.291L227.3 733.159V724.044H236.188L243.199 716.854V699.035L236.19 691.845L236.186 691.844Z" fill="#FFAB55" fill-opacity="0.15"/>
<path fill-rule="evenodd" clip-rule="evenodd" d="M203.85 687.564H207.426V683.489H203.85V687.564ZM215.773 732.401H219.351V728.324H215.773V732.401Z" fill="#FFAB55" fill-opacity="0.15"/>
<path fill-rule="evenodd" clip-rule="evenodd" d="M1410.76 761.694C1410.76 742.747 1405.8 727.388 1399.67 727.388C1393.54 727.388 1388.58 742.747 1388.58 761.694C1388.58 780.641 1393.54 796 1399.67 796C1405.8 796 1410.76 780.641 1410.76 761.694Z" stroke="black" stroke-opacity="0.07" stroke-width="0.7056" stroke-miterlimit="22.9256"/>
<path fill-rule="evenodd" clip-rule="evenodd" d="M1404.11 758.009C1402.47 755.155 1398.89 754.134 1396.13 755.729C1393.37 757.324 1392.47 760.932 1394.11 763.786C1395.76 766.64 1399.33 767.661 1402.1 766.066C1404.86 764.471 1405.76 760.863 1404.11 758.009Z" fill="#FFAB55" fill-opacity="0.15"/>
<path fill-rule="evenodd" clip-rule="evenodd" d="M1394.12 771.305C1377.72 761.832 1366.91 749.849 1369.97 744.541C1373.04 739.232 1388.82 742.608 1405.22 752.082C1421.62 761.555 1432.43 773.538 1429.37 778.847C1426.3 784.155 1410.52 780.779 1394.12 771.305V771.305Z" stroke="black" stroke-opacity="0.07" stroke-width="0.7056" stroke-miterlimit="22.9256"/>
<path fill-rule="evenodd" clip-rule="evenodd" d="M1405.45 770.442C1389.05 779.915 1373.28 783.292 1370.21 777.983C1367.15 772.674 1377.96 760.692 1394.36 751.218C1410.76 741.745 1426.54 738.368 1429.6 743.677C1432.67 748.986 1421.85 760.969 1405.45 770.442V770.442Z" stroke="black" stroke-opacity="0.07" stroke-width="0.7056" stroke-miterlimit="22.9256"/>
<path fill-rule="evenodd" clip-rule="evenodd" d="M514.601 1745.57L494.876 1751.14L475.215 1745.58L470.661 1693.54L519.159 1693.54L514.601 1745.57V1745.57ZM466.868 1690L471.974 1748.33L494.876 1754.81L517.842 1748.32L522.952 1690H466.868Z" fill="#FFAB55" fill-opacity="0.15"/>
<path fill-rule="evenodd" clip-rule="evenodd" d="M478.784 1706.3H507.561L506.528 1718.09L488.22 1718.09L488.532 1721.62L506.224 1721.62L505.04 1735.04L495.534 1737.65L495.033 1737.86L494.389 1737.69L484.779 1735.04L484.287 1729.44H480.807L481.533 1737.74L494.9 1741.52L508.283 1737.74L511.348 1702.77L478.472 1702.77L478.784 1706.3Z" fill="#FFAB55" fill-opacity="0.15"/>
<path d="M1215.13 1227.09L1205.18 1211.55H1161.23L1151.92 1227.06L1183.2 1260.33L1215.13 1227.08V1227.09ZM1181.63 1265.13L1147.62 1228.95C1147.22 1228.52 1147 1227.96 1147 1227.37C1147 1226.95 1147.11 1226.54 1147.33 1226.17L1158.19 1208.09C1158.57 1207.44 1159.27 1207.03 1160.03 1207.03L1206.35 1207.03C1207.07 1207.03 1207.75 1207.41 1208.15 1208.03L1219.73 1226.12C1219.96 1226.49 1220.09 1226.93 1220.09 1227.37C1220.09 1227.97 1219.86 1228.54 1219.46 1228.97L1184.72 1265.15C1184.32 1265.57 1183.76 1265.81 1183.18 1265.81C1182.59 1265.81 1182.03 1265.56 1181.63 1265.13V1265.13Z" fill="#FFAB55" fill-opacity="0.15"/>
<path fill-rule="evenodd" clip-rule="evenodd" d="M1168.66 1223.24L1182.31 1207.73C1182.71 1207.27 1183.29 1207 1183.91 1207C1184.54 1207 1185.14 1207.28 1185.54 1207.77L1198.38 1223.05L1204.73 1208.69C1205.23 1207.56 1206.52 1207.06 1207.61 1207.59C1208.7 1208.11 1209.18 1209.45 1208.68 1210.58L1202.26 1225.09H1218.65V1229.61H1200.25L1185.65 1262.59C1185.9 1263.63 1185.41 1264.75 1184.44 1265.21C1184.16 1265.34 1183.85 1265.4 1183.54 1265.4C1182.87 1265.4 1182.24 1265.08 1181.84 1264.54C1181.32 1264.11 1181.02 1263.47 1181.01 1262.79L1166.65 1229.61H1148.45V1225.09H1164.69L1158.41 1210.57C1157.92 1209.43 1158.4 1208.09 1159.5 1207.58C1160.59 1207.06 1161.88 1207.57 1162.37 1208.71L1168.66 1223.24ZM1194.32 1225.09L1183.87 1212.65L1172.92 1225.09H1194.32ZM1171.41 1229.61L1183.3 1257.09L1195.47 1229.61H1171.41Z" fill="#FFAB55" fill-opacity="0.15"/>
<path fill-rule="evenodd" clip-rule="evenodd" d="M1758.35 1392.8L1736.28 1405.54L1714.2 1392.8L1710.22 1357.1L1736.28 1347.2L1762.33 1357.1L1758.35 1392.8ZM1736.28 1343.35L1706.47 1354.67L1710.97 1395.07L1736.28 1409.67L1761.59 1395.07L1766.09 1354.67L1736.28 1343.35H1736.28Z" fill="#FFAB55" fill-opacity="0.15"/>
<path fill-rule="evenodd" clip-rule="evenodd" d="M1729.71 1378.4L1736.73 1360.68L1743.75 1378.4H1729.72H1729.71ZM1720.3 1391.17H1724.65L1728.26 1382.07L1745.21 1382.07L1748.81 1391.17L1753.16 1391.17L1736.73 1353.11L1720.3 1391.17Z" fill="#FFAB55" fill-opacity="0.15"/>
<path fill-rule="evenodd" clip-rule="evenodd" d="M801.884 1826.45L779.807 1839.18L757.73 1826.45L753.753 1790.74L779.807 1780.85L805.862 1790.74L801.884 1826.45ZM779.807 1777L750 1788.32L754.501 1828.72L779.809 1843.32L805.115 1828.72L809.615 1788.32L779.809 1777H779.807Z" fill="#FFAB55" fill-opacity="0.15"/>
<path fill-rule="evenodd" clip-rule="evenodd" d="M773.244 1812.04L780.261 1794.32L787.281 1812.04H773.246H773.244ZM763.835 1824.82H768.184L771.789 1815.72L788.736 1815.72L792.34 1824.82L796.688 1824.82L780.261 1786.75L763.835 1824.82Z" fill="#FFAB55" fill-opacity="0.15"/>
<path fill-rule="evenodd" clip-rule="evenodd" d="M1525.99 1680.36H1576.43V1627.3H1525.99V1680.36ZM1522.55 1683.97H1579.87V1623.69H1522.55V1683.97Z" fill="#FFAB55" fill-opacity="0.15"/>
<path fill-rule="evenodd" clip-rule="evenodd" d="M1567.22 1671.69C1566.8 1672.01 1566.33 1672.26 1565.82 1672.42C1563.74 1673.05 1560.8 1672.8 1558.78 1670.18C1558.64 1669.99 1558.5 1669.8 1558.37 1669.61L1555.6 1671.3C1556.25 1672.39 1557.14 1673.32 1558.19 1674.03C1559.49 1674.91 1560.97 1675.43 1562.69 1675.61C1564.52 1675.8 1566.13 1675.64 1567.61 1675.12C1569.3 1674.52 1570.49 1673.55 1571.24 1672.15C1571.82 1671.08 1572.06 1669.87 1572 1668.33C1571.92 1666.24 1571.16 1664.61 1569.68 1663.35C1568.57 1662.41 1567.29 1661.73 1565.72 1660.99C1565.44 1660.86 1565.17 1660.74 1564.9 1660.61C1564.17 1660.29 1563.44 1659.94 1562.73 1659.57C1562.17 1659.27 1561.65 1658.9 1561.19 1658.45C1560.39 1657.68 1560.03 1656.34 1560.3 1655.13C1560.54 1653.94 1561.42 1652.98 1562.58 1652.64C1563.34 1652.41 1564.16 1652.4 1565.02 1652.62C1566 1652.87 1566.81 1653.48 1567.51 1654.49L1570.08 1652.76C1569.28 1651.54 1568.35 1650.7 1567.23 1650.22C1565.5 1649.47 1563.6 1649.34 1561.6 1649.84C1559.82 1650.29 1558.53 1651.25 1557.66 1652.8C1557.04 1653.89 1556.79 1655.16 1556.88 1656.68C1557 1658.53 1557.64 1660.01 1558.86 1661.18C1559.95 1662.24 1561.3 1662.94 1562.48 1663.49L1563.15 1663.81C1564.12 1664.26 1565.12 1664.73 1566.1 1665.22C1566.62 1665.49 1567.13 1665.87 1567.57 1666.31C1568.28 1667.04 1568.65 1668.05 1568.58 1669.08C1568.52 1670.11 1568.02 1671.06 1567.22 1671.69V1671.69ZM1539.75 1674.93C1541.85 1675.88 1544.08 1675.97 1546.38 1675.18C1548.14 1674.58 1549.31 1673.35 1549.94 1671.42C1550.26 1670.45 1550.4 1669.37 1550.4 1667.94V1649.91L1546.96 1649.91V1653.04C1546.96 1657.98 1546.96 1662.93 1546.95 1667.87C1546.95 1668.45 1546.91 1669 1546.84 1669.51C1546.77 1669.99 1546.56 1671.48 1545.23 1672.16C1543.73 1672.94 1542.23 1672.87 1540.88 1671.98C1540.21 1671.53 1539.78 1670.92 1539.42 1670.32L1539.31 1670.15L1536.56 1671.9C1537.37 1673.34 1538.42 1674.33 1539.75 1674.93L1539.75 1674.93Z" fill="#FFAB55" fill-opacity="0.15"/>
<path fill-rule="evenodd" clip-rule="evenodd" d="M498.297 1417.51H553.411V1413.9H498.297V1417.51ZM498.297 1460.92H553.411V1421.13H498.297V1460.92ZM494.922 1410.28V1464.54L556.785 1464.54V1410.28L494.922 1410.28Z" fill="#FFAB55" fill-opacity="0.15"/>
<path fill-rule="evenodd" clip-rule="evenodd" d="M503.92 1435H507.295V1427.76H503.92V1435Z" fill="#FFAB55" fill-opacity="0.15"/>
<path fill-rule="evenodd" clip-rule="evenodd" d="M1475.62 1146.8L1470.71 1151.84H1447.6V1155.5H1459.72V1163.1L1454.81 1168.14H1440.39L1435.48 1163.1V1148.31L1442.38 1141.24L1454.31 1141.24L1463.3 1131.92V1126.97H1470.71L1475.62 1132.01V1146.8ZM1424.49 1151.84L1419.58 1146.8V1132.01L1424.49 1126.97L1447.6 1126.97V1123.3H1435.48V1115.71L1440.39 1110.67H1454.81L1459.72 1115.71V1130.42L1452.82 1137.57H1440.9L1431.9 1146.8V1151.84L1424.49 1151.84ZM1472.19 1123.3H1463.3V1114.19L1456.29 1107H1438.91L1431.9 1114.19V1123.3H1423.01L1416 1130.49V1148.32L1423.01 1155.51L1431.9 1155.51V1164.62L1438.91 1171.81H1456.29L1463.3 1164.62V1155.5H1472.19L1479.2 1148.31V1130.5L1472.19 1123.31L1472.19 1123.3Z" fill="#FFAB55" fill-opacity="0.15"/>
<path fill-rule="evenodd" clip-rule="evenodd" d="M1439.85 1119.02H1443.42V1114.95L1439.85 1114.95V1119.02ZM1451.77 1163.86H1455.35V1159.78H1451.77V1163.86Z" fill="#FFAB55" fill-opacity="0.15"/>
<path fill-rule="evenodd" clip-rule="evenodd" d="M322.529 1379.33L302.804 1384.9L283.143 1379.34L278.59 1327.3H327.087L322.529 1379.33V1379.33ZM274.797 1323.76L279.902 1382.09L302.804 1388.57L325.771 1382.08L330.881 1323.76H274.797Z" fill="#FFAB55" fill-opacity="0.15"/>
<path fill-rule="evenodd" clip-rule="evenodd" d="M288.754 1355.51H313.405L312.305 1368.01L302.882 1370.64L302.348 1370.5L293.329 1368.02L292.862 1362.71H289.385L290.085 1370.72L302.807 1374.32L315.545 1370.72L317.187 1351.97H291.922L290.964 1341.03H318.147L318.459 1337.5H287.176L288.754 1355.51Z" fill="#FFAB55" fill-opacity="0.15"/>
<path fill-rule="evenodd" clip-rule="evenodd" d="M641.733 1613.57L622.007 1619.14L602.347 1613.58L597.793 1561.54H646.291L641.733 1613.57V1613.57ZM594 1558L599.105 1616.33L622.007 1622.81L644.974 1616.32L650.084 1558H594Z" fill="#FFAB55" fill-opacity="0.15"/>
<path fill-rule="evenodd" clip-rule="evenodd" d="M607.957 1589.75H632.608L631.509 1602.25L622.086 1604.88L621.551 1604.74L612.532 1602.26L612.065 1596.95H608.588L609.288 1604.96L622.01 1608.56L634.748 1604.96L636.39 1586.21H611.125L610.167 1575.27H637.35L637.662 1571.74H606.38L607.957 1589.75Z" fill="#FFAB55" fill-opacity="0.15"/>
<path fill-rule="evenodd" clip-rule="evenodd" d="M10.374 1125.23H65.4883V1121.62H10.374V1125.23ZM10.374 1168.64H65.4883V1128.85H10.374V1168.64ZM7 1118V1172.26H68.8623V1118H7Z" fill="#FFAB55" fill-opacity="0.15"/>
<path fill-rule="evenodd" clip-rule="evenodd" d="M15.9977 1142.72H19.3723V1135.48H15.9977V1142.72Z" fill="#FFAB55" fill-opacity="0.15"/>
<path fill-rule="evenodd" clip-rule="evenodd" d="M89.6213 1737.34L84.7072 1742.38H61.5987V1746.04H73.722V1753.64L68.8079 1758.68H54.3918L49.4777 1753.64V1738.85L56.3772 1731.78H68.308L77.2982 1722.46V1717.51H84.7072L89.6213 1722.55V1737.34ZM38.4931 1742.38L33.579 1737.34V1722.55L38.4931 1717.51H61.5999V1713.84H49.4777V1706.25L54.3918 1701.21L68.8085 1701.21L73.7226 1706.25V1720.96L66.8157 1728.11L54.8963 1728.11L45.8999 1737.34V1742.38H38.4931ZM86.1864 1713.84H77.2987V1704.73L70.2894 1697.54H52.9098L45.9004 1704.73V1713.84L37.0122 1713.84L30 1721.03V1738.86L37.0094 1746.05H45.897V1755.16L52.9109 1762.35H70.2905L77.2999 1755.16V1746.04H86.1881L93.1992 1738.85V1721.03L86.1898 1713.85L86.1864 1713.84Z" fill="#FFAB55" fill-opacity="0.15"/>
<path fill-rule="evenodd" clip-rule="evenodd" d="M53.8502 1709.56H57.4263V1705.49H53.8502V1709.56ZM65.7731 1754.4H69.3509V1750.32H65.7731V1754.4Z" fill="#FFAB55" fill-opacity="0.15"/>
<path fill-rule="evenodd" clip-rule="evenodd" d="M1841.21 1793.07L1842.92 1790.12L1827.52 1790.46L1827.46 1793.38L1836.28 1793.18L1831.48 1801.5L1812.25 1801.93L1809.69 1806.37L1833.85 1805.83L1834.48 1804.74L1841.21 1793.07H1841.21ZM1792.17 1794.67L1799.93 1781.22L1802.48 1781.16L1802.43 1783.66L1796.12 1794.59L1792.17 1794.67ZM1806.77 1780.49L1806.8 1778.92L1806.8 1778.92L1806.81 1778.15L1801.64 1778.26H1801.64L1796.7 1778.37L1785.54 1797.71L1794.42 1797.54L1793.56 1799.03L1798.49 1798.93L1809.15 1780.44L1806.77 1780.49L1806.77 1780.49Z" fill="#FFAB55" fill-opacity="0.15"/>
<path fill-rule="evenodd" clip-rule="evenodd" d="M1778.57 1794.99L1766.23 1795.26L1773.99 1781.81L1786.33 1781.53L1778.57 1794.99L1778.57 1794.99ZM1824.21 1767.51L1827.85 1761.2L1825.09 1759.6L1825.09 1759.6L1814.17 1753.29L1814.16 1753.3V1753.29L1784.24 1753.96V1753.97L1784.24 1753.97L1781.6 1758.54L1781.6 1758.54L1779.04 1762.98L1787.59 1778.58L1770.77 1778.96L1768.21 1783.39L1768.21 1783.39L1764.7 1789.48L1764.69 1789.48L1759.59 1798.33L1781.79 1797.84L1791.27 1781.43L1793.19 1781.38L1794.9 1778.42L1792.52 1778.47L1783.97 1762.87L1786.62 1758.29L1812.93 1757.7L1821.98 1762.92L1819.27 1767.62L1802.7 1767.99L1800.14 1772.43L1821.65 1771.95L1824.21 1767.51L1824.2 1767.51L1824.21 1767.51ZM1814.08 1783.91L1817.54 1777.91L1812.61 1778.03L1809.85 1782.81L1809.58 1795.8L1806.02 1795.88L1806.1 1792.12L1803.91 1795.91L1803.9 1795.91L1802.21 1798.84L1813.78 1798.59L1814.08 1783.91ZM1825.73 1798.32L1826.04 1783.63L1829.49 1777.64L1824.56 1777.75L1821.8 1782.54L1821.53 1795.52L1817.97 1795.59L1818.05 1791.84L1815.18 1796.82L1814.16 1798.58L1825.73 1798.32Z" fill="#FFAB55" fill-opacity="0.15"/>
<path fill-rule="evenodd" clip-rule="evenodd" d="M1260.76 1783.69C1260.76 1764.75 1255.8 1749.39 1249.67 1749.39C1243.54 1749.39 1238.58 1764.75 1238.58 1783.69C1238.58 1802.64 1243.54 1818 1249.67 1818C1255.8 1818 1260.76 1802.64 1260.76 1783.69Z" stroke="black" stroke-opacity="0.07" stroke-width="0.7056" stroke-miterlimit="22.9256"/>
<path fill-rule="evenodd" clip-rule="evenodd" d="M1254.11 1780.01C1252.47 1777.15 1248.89 1776.13 1246.13 1777.73C1243.37 1779.32 1242.47 1782.93 1244.11 1785.79C1245.76 1788.64 1249.33 1789.66 1252.1 1788.07C1254.86 1786.47 1255.76 1782.86 1254.11 1780.01Z" fill="#FFAB55" fill-opacity="0.15"/>
<path fill-rule="evenodd" clip-rule="evenodd" d="M1244.12 1793.31C1227.72 1783.83 1216.91 1771.85 1219.97 1766.54C1223.04 1761.23 1238.82 1764.61 1255.22 1774.08C1271.62 1783.56 1282.43 1795.54 1279.37 1800.85C1276.3 1806.16 1260.52 1802.78 1244.12 1793.31V1793.31Z" stroke="black" stroke-opacity="0.07" stroke-width="0.7056" stroke-miterlimit="22.9256"/>
<path fill-rule="evenodd" clip-rule="evenodd" d="M1255.45 1792.44C1239.05 1801.92 1223.28 1805.29 1220.21 1799.98C1217.15 1794.67 1227.96 1782.69 1244.36 1773.22C1260.76 1763.74 1276.54 1760.37 1279.6 1765.68C1282.67 1770.99 1271.85 1782.97 1255.45 1792.44V1792.44Z" stroke="black" stroke-opacity="0.07" stroke-width="0.7056" stroke-miterlimit="22.9256"/>
<path d="M663.063 977.768L653.12 962.23H609.166L599.853 977.745L631.135 1011.01L663.063 977.766V977.768ZM629.569 1015.81L595.556 979.637C595.158 979.206 594.936 978.641 594.936 978.054C594.936 977.633 595.051 977.219 595.266 976.858L606.122 958.772C606.506 958.118 607.205 957.715 607.963 957.71L654.283 957.71C655.009 957.71 655.687 958.089 656.091 958.717L667.663 976.803C667.9 977.177 668.027 977.612 668.027 978.055C668.027 978.65 667.799 979.223 667.392 979.656L632.654 1015.83C632.255 1016.25 631.7 1016.49 631.119 1016.49C630.531 1016.49 629.969 1016.24 629.569 1015.81V1015.81Z" fill="#FFAB55" fill-opacity="0.15"/>
<path fill-rule="evenodd" clip-rule="evenodd" d="M616.593 973.923L630.244 958.416C630.646 957.951 631.23 957.683 631.845 957.683C632.477 957.683 633.077 957.967 633.479 958.455L646.314 973.731L652.669 959.375C653.171 958.241 654.461 957.746 655.55 958.269C656.639 958.792 657.113 960.135 656.612 961.268L650.192 975.77H666.582V980.291H648.188L633.586 1013.27C633.84 1014.32 633.346 1015.43 632.372 1015.89C632.092 1016.02 631.787 1016.09 631.478 1016.09C630.806 1016.09 630.172 1015.77 629.773 1015.22C629.255 1014.79 628.952 1014.15 628.947 1013.48L614.586 980.291H596.384V975.77H612.629L606.344 961.249C605.852 960.111 606.34 958.773 607.432 958.259C608.526 957.747 609.812 958.253 610.303 959.393L616.593 973.923ZM642.256 975.77L631.806 963.333L620.859 975.77H642.256ZM619.35 980.291L631.241 1007.77L643.408 980.291H619.35Z" fill="#FFAB55" fill-opacity="0.15"/>
<path fill-rule="evenodd" clip-rule="evenodd" d="M941.884 1188.45L919.807 1201.18L897.731 1188.45L893.754 1152.74L919.807 1142.85L945.862 1152.74L941.884 1188.45ZM919.807 1139L890 1150.32L894.501 1190.72L919.809 1205.32L945.115 1190.72L949.615 1150.32L919.809 1139H919.807Z" fill="#FFAB55" fill-opacity="0.15"/>
<path fill-rule="evenodd" clip-rule="evenodd" d="M913.243 1174.04L920.26 1156.32L927.28 1174.04H913.245H913.243ZM903.834 1186.82H908.183L911.788 1177.72L928.735 1177.72L932.339 1186.82L936.687 1186.82L920.26 1148.75L903.834 1186.82Z" fill="#FFAB55" fill-opacity="0.15"/>
<path fill-rule="evenodd" clip-rule="evenodd" d="M132.884 1480.45L110.807 1493.18L88.7301 1480.45L84.7532 1444.74L110.807 1434.85L136.862 1444.74L132.884 1480.45ZM110.807 1431L81 1442.32L85.5013 1482.72L110.809 1497.32L136.115 1482.72L140.615 1442.32L110.809 1431H110.807Z" fill="#FFAB55" fill-opacity="0.15"/>
<path fill-rule="evenodd" clip-rule="evenodd" d="M104.244 1466.04L111.261 1448.32L118.281 1466.04H104.246H104.244ZM94.8348 1478.82H99.1842L102.789 1469.72L119.736 1469.72L123.34 1478.82L127.688 1478.82L111.261 1440.75L94.8348 1478.82Z" fill="#FFAB55" fill-opacity="0.15"/>
<path fill-rule="evenodd" clip-rule="evenodd" d="M756.987 1540.36H807.427V1487.3H756.987V1540.36ZM753.55 1543.97H810.866V1483.69H753.55V1543.97Z" fill="#FFAB55" fill-opacity="0.15"/>
<path fill-rule="evenodd" clip-rule="evenodd" d="M798.215 1531.69C797.799 1532.01 797.326 1532.26 796.822 1532.42C794.743 1533.05 791.8 1532.8 789.778 1530.18C789.637 1529.99 789.498 1529.8 789.366 1529.61L786.6 1531.3C787.25 1532.39 788.138 1533.32 789.19 1534.03C790.492 1534.91 791.965 1535.43 793.694 1535.61C795.521 1535.8 797.131 1535.64 798.613 1535.12C800.297 1534.52 801.486 1533.55 802.243 1532.15C802.82 1531.08 803.063 1529.87 803.004 1528.33C802.924 1526.24 802.164 1524.61 800.678 1523.35C799.565 1522.41 798.289 1521.73 796.716 1520.99C796.445 1520.86 796.171 1520.74 795.898 1520.61C795.172 1520.29 794.437 1519.94 793.731 1519.57C793.168 1519.27 792.648 1518.9 792.192 1518.45C791.39 1517.68 791.032 1516.34 791.3 1515.13C791.543 1513.94 792.42 1512.98 793.581 1512.64C794.34 1512.41 795.162 1512.4 796.024 1512.62C796.997 1512.87 797.814 1513.48 798.515 1514.49L801.082 1512.76C800.284 1511.54 799.346 1510.7 798.234 1510.22C796.496 1509.47 794.601 1509.34 792.604 1509.84C790.817 1510.29 789.526 1511.25 788.657 1512.8C788.044 1513.89 787.791 1515.16 787.882 1516.68C787.995 1518.53 788.64 1520.01 789.856 1521.18C790.948 1522.24 792.299 1522.94 793.476 1523.49L794.154 1523.81C795.121 1524.26 796.123 1524.73 797.097 1525.22C797.622 1525.49 798.129 1525.87 798.566 1526.31C799.278 1527.04 799.651 1528.05 799.583 1529.08C799.521 1530.11 799.023 1531.06 798.215 1531.69V1531.69ZM770.747 1534.93C772.85 1535.88 775.083 1535.97 777.378 1535.18C779.144 1534.58 780.308 1533.35 780.94 1531.42C781.256 1530.45 781.397 1529.37 781.397 1527.94V1509.91L777.957 1509.91V1513.04C777.957 1517.98 777.957 1522.93 777.952 1527.87C777.952 1528.45 777.915 1529 777.841 1529.51C777.77 1529.99 777.556 1531.48 776.229 1532.16C774.731 1532.94 773.229 1532.87 771.881 1531.98C771.211 1531.53 770.782 1530.92 770.416 1530.32L770.313 1530.15L767.556 1531.9C768.367 1533.34 769.415 1534.33 770.749 1534.93L770.747 1534.93Z" fill="#FFAB55" fill-opacity="0.15"/>
<path fill-rule="evenodd" clip-rule="evenodd" d="M1388.35 1575.43L1368.62 1581L1348.96 1575.44L1344.41 1523.4H1392.91L1388.35 1575.43V1575.43ZM1340.62 1519.86L1345.72 1578.19L1368.63 1584.67L1391.59 1578.18L1396.7 1519.86H1340.62Z" fill="#FFAB55" fill-opacity="0.15"/>
<path fill-rule="evenodd" clip-rule="evenodd" d="M1354.58 1551.61H1379.23L1378.13 1564.12L1368.7 1566.74L1368.17 1566.6L1359.15 1564.12L1358.68 1558.81H1355.21L1355.91 1566.82L1368.63 1570.42L1381.37 1566.82L1383.01 1548.08H1357.74L1356.78 1537.13H1383.97L1384.28 1533.6L1353 1533.6L1354.58 1551.61Z" fill="#FFAB55" fill-opacity="0.15"/>
<path fill-rule="evenodd" clip-rule="evenodd" d="M1154.82 1397.78L1140.65 1402.91V1420.29L1154.82 1425.42L1173.93 1425.42L1188.1 1420.29V1402.91L1173.93 1397.78L1154.82 1397.78ZM1155.38 1407.02L1147.64 1404.21L1155.39 1401.4L1173.37 1401.4L1181.11 1404.21L1173.36 1407.02L1155.38 1407.02ZM1173.92 1410.64L1184.69 1406.74V1417.7L1184.66 1417.71L1173.36 1421.8L1155.38 1421.8L1144.06 1417.7V1406.74L1144.11 1406.76L1154.82 1410.64H1173.93H1173.92Z" fill="#FFAB55" fill-opacity="0.15"/>
<path fill-rule="evenodd" clip-rule="evenodd" d="M1184.68 1434.33L1184.66 1434.33L1173.35 1438.43L1155.38 1438.43L1144.06 1434.33V1425.3L1140.65 1424.06V1436.92L1154.82 1442.05L1173.92 1442.05L1188.09 1436.92V1424.06L1184.68 1425.3L1184.68 1434.33Z" fill="#FFAB55" fill-opacity="0.15"/>
<path fill-rule="evenodd" clip-rule="evenodd" d="M1184.68 1450.34L1184.66 1450.35L1173.35 1454.44L1155.38 1454.44L1144.06 1450.34V1441.31L1140.65 1440.07V1452.93L1154.82 1458.07L1173.92 1458.07L1188.09 1452.93V1440.07L1184.68 1441.31L1184.68 1450.34Z" fill="#FFAB55" fill-opacity="0.15"/>
<path fill-rule="evenodd" clip-rule="evenodd" d="M265.148 950.758L260.234 955.798H237.125V959.465H249.249V967.061L244.335 972.101H229.919L225.005 967.061V952.275L231.904 945.199L243.835 945.2L252.825 935.886V930.934H260.234L265.148 935.973V950.758ZM214.02 955.798L209.105 950.758V935.972L214.02 930.934L237.127 930.934V927.266H225.005V919.67L229.919 914.629H244.335L249.249 919.67V934.377L242.342 941.531H230.423L221.427 950.758V955.799L214.02 955.798ZM261.714 927.266H252.825V918.15L245.816 910.961H228.436L221.427 918.15V927.266H212.539L205.527 934.455V952.278L212.537 959.467L221.424 959.467V968.58L228.438 975.77H245.818L252.827 968.58V959.465H261.715L268.726 952.275V934.456L261.716 927.267L261.714 927.266Z" fill="#FFAB55" fill-opacity="0.15"/>
<path fill-rule="evenodd" clip-rule="evenodd" d="M229.375 922.985H232.952V918.91L229.375 918.91V922.985ZM241.299 967.822H244.877V963.746H241.299V967.822Z" fill="#FFAB55" fill-opacity="0.15"/>
<path fill-rule="evenodd" clip-rule="evenodd" d="M1072.21 1653.08L1073.92 1650.12L1058.52 1650.46L1058.46 1653.38L1067.28 1653.18L1062.48 1661.5L1043.25 1661.93L1040.69 1666.37L1064.85 1665.83L1065.48 1664.74L1072.21 1653.08H1072.21ZM1023.17 1654.67L1030.93 1641.22L1033.48 1641.16L1033.43 1643.66L1027.12 1654.59L1023.17 1654.67ZM1037.77 1640.49L1037.8 1638.92L1037.8 1638.92L1037.81 1638.15L1032.64 1638.26H1032.64L1027.7 1638.37L1016.54 1657.71L1025.42 1657.54L1024.56 1659.03L1029.49 1658.93L1040.15 1640.44L1037.77 1640.49L1037.77 1640.49Z" fill="#FFAB55" fill-opacity="0.15"/>
<path fill-rule="evenodd" clip-rule="evenodd" d="M1009.57 1654.99L997.228 1655.26L1004.99 1641.81L1017.33 1641.53L1009.57 1654.99L1009.57 1654.99ZM1055.21 1627.51L1058.85 1621.2L1056.09 1619.6L1056.09 1619.6L1045.17 1613.29L1045.16 1613.3V1613.29L1015.24 1613.96V1613.97L1015.24 1613.97L1012.6 1618.54L1012.6 1618.54L1010.04 1622.98L1018.59 1638.58L1001.77 1638.96L999.208 1643.39L999.212 1643.39L995.697 1649.48L995.693 1649.48L990.586 1658.33L1012.79 1657.84L1022.27 1641.43L1024.19 1641.38L1025.9 1638.42L1023.52 1638.47L1014.97 1622.87L1017.62 1618.29L1043.93 1617.7L1052.98 1622.92L1050.27 1627.62L1033.7 1627.99L1031.14 1632.43L1052.65 1631.95L1055.21 1627.51L1055.2 1627.51L1055.21 1627.51ZM1045.08 1643.91L1048.54 1637.91L1043.61 1638.03L1040.85 1642.81L1040.58 1655.8L1037.02 1655.88L1037.1 1652.12L1034.91 1655.91L1034.9 1655.91L1033.21 1658.84L1044.78 1658.59L1045.08 1643.91ZM1056.73 1658.32L1057.04 1643.63L1060.49 1637.64L1055.56 1637.75L1052.8 1642.54L1052.53 1655.52L1048.97 1655.59L1049.05 1651.84L1046.18 1656.82L1045.16 1658.58L1056.73 1658.32Z" fill="#FFAB55" fill-opacity="0.15"/>
</svg>
