<svg width="1643" height="800" viewBox="0 0 1643 800" fill="none" xmlns="http://www.w3.org/2000/svg">
<path fill-rule="evenodd" clip-rule="evenodd" d="M507.6 727.573L487.874 733.143L468.214 727.582L463.66 675.539L512.158 675.54L507.6 727.572V727.573ZM459.867 672.004L464.973 730.334L487.874 736.812L510.841 730.325L515.951 672.004H459.867Z" fill="#FFAB55" fill-opacity="0.15"/>
<path fill-rule="evenodd" clip-rule="evenodd" d="M471.785 688.303H500.562L499.528 700.089L481.221 700.09L481.533 703.624L499.224 703.622L498.04 717.036L488.535 719.651L488.033 719.856L487.39 719.686L477.779 717.042L477.287 711.442H473.808L474.534 719.737L487.9 723.517L501.283 719.737L504.348 684.771L471.473 684.77L471.785 688.303Z" fill="#FFAB55" fill-opacity="0.15"/>
<path d="M1208.13 209.085L1198.18 193.548H1154.23L1144.92 209.062L1176.2 242.332L1208.13 209.084V209.085ZM1174.63 247.126L1140.62 210.954C1140.22 210.524 1140 209.958 1140 209.371C1140 208.95 1140.11 208.536 1140.33 208.175L1151.19 190.089C1151.57 189.435 1152.27 189.032 1153.03 189.027L1199.35 189.028C1200.07 189.028 1200.75 189.406 1201.15 190.034L1212.73 208.12C1212.96 208.495 1213.09 208.929 1213.09 209.372C1213.09 209.967 1212.86 210.541 1212.46 210.974L1177.72 247.146C1177.32 247.568 1176.76 247.807 1176.18 247.807C1175.59 247.807 1175.03 247.561 1174.63 247.129V247.126Z" fill="#FFAB55" fill-opacity="0.15"/>
<path fill-rule="evenodd" clip-rule="evenodd" d="M1161.66 205.241L1175.31 189.733C1175.71 189.268 1176.3 189 1176.91 189C1177.54 189 1178.14 189.284 1178.54 189.772L1191.38 205.048L1197.73 190.692C1198.24 189.558 1199.53 189.063 1200.62 189.586C1201.7 190.109 1202.18 191.452 1201.68 192.585L1195.26 207.087H1211.65V211.609H1193.25L1178.65 244.591C1178.9 245.634 1178.41 246.747 1177.44 247.205C1177.16 247.335 1176.85 247.403 1176.54 247.403C1175.87 247.403 1175.24 247.084 1174.84 246.542C1174.32 246.11 1174.02 245.469 1174.01 244.794L1159.65 211.609H1141.45V207.087H1157.69L1151.41 192.567C1150.92 191.428 1151.4 190.09 1152.5 189.577C1153.59 189.064 1154.88 189.57 1155.37 190.71L1161.66 205.241ZM1187.32 207.087L1176.87 194.65L1165.92 207.087H1187.32ZM1164.41 211.609L1176.31 239.089L1188.47 211.609H1164.41Z" fill="#FFAB55" fill-opacity="0.15"/>
<path fill-rule="evenodd" clip-rule="evenodd" d="M794.884 808.447L772.807 821.183L750.73 808.447L746.753 772.742L772.807 762.849L798.862 772.742L794.884 808.447ZM772.807 759L743 770.319L747.501 810.715L772.809 825.315L798.115 810.715L802.615 770.319L772.809 759H772.807Z" fill="#FFAB55" fill-opacity="0.15"/>
<path fill-rule="evenodd" clip-rule="evenodd" d="M766.245 794.043L773.262 776.323L780.282 794.043H766.247H766.245ZM756.836 806.819H761.185L764.79 797.718L781.737 797.719L785.341 806.819L789.69 806.819L773.262 768.755L756.836 806.819Z" fill="#FFAB55" fill-opacity="0.15"/>
<path fill-rule="evenodd" clip-rule="evenodd" d="M1518.99 662.357H1569.43V609.305H1518.99V662.357ZM1515.55 665.975H1572.87V605.688H1515.55V665.975Z" fill="#FFAB55" fill-opacity="0.15"/>
<path fill-rule="evenodd" clip-rule="evenodd" d="M1560.22 653.689C1559.8 654.014 1559.33 654.262 1558.82 654.421C1556.75 655.053 1553.8 654.797 1551.78 652.175C1551.64 651.993 1551.5 651.801 1551.37 651.613L1548.6 653.298C1549.25 654.388 1550.14 655.323 1551.19 656.034C1552.49 656.913 1553.97 657.428 1555.7 657.609C1557.52 657.802 1559.13 657.641 1560.62 657.117C1562.3 656.524 1563.49 655.553 1564.25 654.149C1564.82 653.083 1565.06 651.869 1565.01 650.333C1564.93 648.238 1564.17 646.609 1562.68 645.353C1561.57 644.409 1560.29 643.726 1558.72 642.991C1558.45 642.864 1558.17 642.737 1557.9 642.614C1557.17 642.292 1556.44 641.936 1555.73 641.574C1555.17 641.273 1554.65 640.896 1554.19 640.454C1553.39 639.681 1553.03 638.344 1553.3 637.126C1553.55 635.94 1554.42 634.983 1555.58 634.639C1556.34 634.406 1557.16 634.398 1558.03 634.621C1559 634.871 1559.82 635.485 1560.52 636.493L1563.08 634.759C1562.29 633.539 1561.35 632.704 1560.24 632.225C1558.5 631.473 1556.6 631.344 1554.61 631.842C1552.82 632.287 1551.53 633.254 1550.66 634.802C1550.05 635.894 1549.79 637.163 1549.88 638.681C1550 640.534 1550.64 642.007 1551.86 643.181C1552.95 644.239 1554.3 644.945 1555.48 645.494L1556.16 645.809C1557.12 646.26 1558.12 646.726 1559.1 647.224C1559.62 647.493 1560.13 647.869 1560.57 648.314C1561.28 649.04 1561.65 650.049 1561.59 651.081C1561.52 652.107 1561.03 653.057 1560.22 653.69V653.689ZM1532.75 656.931C1534.85 657.881 1537.08 657.967 1539.38 657.184C1541.15 656.585 1542.31 655.352 1542.94 653.416C1543.26 652.446 1543.4 651.374 1543.4 649.941V631.906L1539.96 631.906V635.04C1539.96 639.984 1539.96 644.927 1539.95 649.871C1539.95 650.447 1539.92 650.996 1539.84 651.506C1539.77 651.993 1539.56 653.478 1538.23 654.165C1536.73 654.937 1535.23 654.873 1533.88 653.978C1533.21 653.535 1532.78 652.917 1532.42 652.317L1532.32 652.147L1529.56 653.902C1530.37 655.337 1531.42 656.33 1532.75 656.932L1532.75 656.931Z" fill="#FFAB55" fill-opacity="0.15"/>
<path fill-rule="evenodd" clip-rule="evenodd" d="M491.296 399.512H546.41V395.896H491.296V399.512ZM491.296 442.919H546.41V403.13H491.296V442.919ZM487.922 392.278V446.536L549.785 446.536V392.279L487.922 392.278Z" fill="#FFAB55" fill-opacity="0.15"/>
<path fill-rule="evenodd" clip-rule="evenodd" d="M496.918 416.996H500.293V409.761H496.918V416.996Z" fill="#FFAB55" fill-opacity="0.15"/>
<path fill-rule="evenodd" clip-rule="evenodd" d="M1468.62 128.797L1463.71 133.837H1440.6V137.504H1452.72V145.1L1447.81 150.14H1433.39L1428.48 145.1V130.314L1435.38 123.238L1447.31 123.239L1456.3 113.925V108.973H1463.71L1468.62 114.012V128.797ZM1417.49 133.837L1412.58 128.797V114.011L1417.49 108.973L1440.6 108.973V105.305H1428.48V97.7087L1433.39 92.6685H1447.81L1452.72 97.7087V112.416L1445.82 119.57H1433.9L1424.9 128.797V133.838L1417.49 133.837ZM1465.19 105.305H1456.3V96.1895L1449.29 89H1431.91L1424.9 96.1895V105.305H1416.01L1409 112.494V130.317L1416.01 137.506L1424.9 137.506V146.619L1431.91 153.809H1449.29L1456.3 146.619V137.504H1465.19L1472.2 130.314V112.495L1465.19 105.306L1465.19 105.305Z" fill="#FFAB55" fill-opacity="0.15"/>
<path fill-rule="evenodd" clip-rule="evenodd" d="M1432.85 101.024H1436.42V96.9491L1432.85 96.9486V101.024ZM1444.77 145.861H1448.35V141.785H1444.77V145.861Z" fill="#FFAB55" fill-opacity="0.15"/>
<path fill-rule="evenodd" clip-rule="evenodd" d="M315.529 361.33L295.804 366.9L276.144 361.339L271.59 309.296H320.088L315.529 361.328V361.33ZM267.797 305.76L272.902 364.091L295.804 370.569L318.771 364.082L323.881 305.76H267.797Z" fill="#FFAB55" fill-opacity="0.15"/>
<path fill-rule="evenodd" clip-rule="evenodd" d="M281.753 337.506H306.404L305.305 350.015L295.882 352.643L295.347 352.5L286.328 350.02L285.861 344.705H282.384L283.085 352.716L295.806 356.315L308.545 352.716L310.187 333.974H284.921L283.963 323.026H311.147L311.459 319.495H280.176L281.753 337.506Z" fill="#FFAB55" fill-opacity="0.15"/>
<path fill-rule="evenodd" clip-rule="evenodd" d="M634.733 595.57L615.007 601.14L595.347 595.579L590.793 543.536H639.291L634.733 595.568V595.57ZM587 540L592.105 598.331L615.007 604.809L637.974 598.322L643.084 540H587Z" fill="#FFAB55" fill-opacity="0.15"/>
<path fill-rule="evenodd" clip-rule="evenodd" d="M600.957 571.746H625.607L624.508 584.255L615.085 586.883L614.551 586.74L605.531 584.259L605.065 578.945H601.587L602.288 586.956L615.009 590.555L627.748 586.956L629.39 568.214H604.124L603.166 557.266H630.35L630.662 553.735H599.379L600.957 571.746Z" fill="#FFAB55" fill-opacity="0.15"/>
<path fill-rule="evenodd" clip-rule="evenodd" d="M3.37401 107.234H58.4883V103.617H3.37401V107.234ZM3.37401 150.641H58.4883V110.852H3.37401V150.641ZM0 100V154.258H61.8623V100H0Z" fill="#FFAB55" fill-opacity="0.15"/>
<path fill-rule="evenodd" clip-rule="evenodd" d="M8.99609 124.718H12.3707V117.483H8.99609V124.718Z" fill="#FFAB55" fill-opacity="0.15"/>
<path fill-rule="evenodd" clip-rule="evenodd" d="M82.6213 719.337L77.7072 724.377H54.5987V728.044H66.722V735.64L61.8079 740.68H47.3918L42.4777 735.64V720.854L49.3772 713.778H61.308L70.2982 704.464V699.513H77.7072L82.6213 704.551V719.337ZM31.4931 724.377L26.579 719.337V704.551L31.4931 699.513H54.5999V695.844H42.4777V688.248L47.3918 683.208L61.8085 683.208L66.7226 688.249V702.956L59.8157 710.11L47.8963 710.11L38.8999 719.337V724.377H31.4931ZM79.1864 695.844H70.2987V686.729L63.2894 679.54H45.9098L38.9004 686.729V695.845L30.0122 695.844L23 703.034V720.856L30.0094 728.046H38.897V737.159L45.9109 744.349H63.2905L70.2999 737.159V728.044H79.1881L86.1992 720.854V703.035L79.1898 695.845L79.1864 695.844Z" fill="#FFAB55" fill-opacity="0.15"/>
<path fill-rule="evenodd" clip-rule="evenodd" d="M46.8516 691.564H50.4277V687.489H46.8516V691.564ZM58.7745 736.401H62.3523V732.324H58.7745V736.401Z" fill="#FFAB55" fill-opacity="0.15"/>
<path fill-rule="evenodd" clip-rule="evenodd" d="M1253.77 765.694C1253.77 746.747 1248.8 731.388 1242.67 731.388C1236.54 731.388 1231.58 746.747 1231.58 765.694C1231.58 784.641 1236.54 800 1242.67 800C1248.8 800 1253.77 784.641 1253.77 765.694Z" stroke="black" stroke-opacity="0.07" stroke-width="0.7056" stroke-miterlimit="22.9256"/>
<path fill-rule="evenodd" clip-rule="evenodd" d="M1247.11 762.009C1245.47 759.155 1241.89 758.134 1239.13 759.729C1236.37 761.324 1235.46 764.932 1237.11 767.786C1238.76 770.64 1242.33 771.661 1245.09 770.066C1247.86 768.471 1248.76 764.863 1247.11 762.009Z" fill="#FFAB55" fill-opacity="0.15"/>
<path fill-rule="evenodd" clip-rule="evenodd" d="M1237.12 775.305C1220.72 765.832 1209.91 753.849 1212.98 748.541C1216.04 743.232 1231.82 746.608 1248.22 756.082C1264.62 765.555 1275.43 777.538 1272.37 782.847C1269.3 788.155 1253.52 784.779 1237.12 775.305V775.305Z" stroke="black" stroke-opacity="0.07" stroke-width="0.7056" stroke-miterlimit="22.9256"/>
<path fill-rule="evenodd" clip-rule="evenodd" d="M1248.46 774.442C1232.06 783.915 1216.28 787.292 1213.21 781.983C1210.15 776.674 1220.96 764.692 1237.36 755.218C1253.76 745.745 1269.54 742.368 1272.6 747.677C1275.67 752.986 1264.86 764.969 1248.46 774.442V774.442Z" stroke="black" stroke-opacity="0.07" stroke-width="0.7056" stroke-miterlimit="22.9256"/>
</svg>
