<svg width="101" height="101" viewBox="0 0 101 101" fill="none" xmlns="http://www.w3.org/2000/svg">
<g clip-path="url(#clip5)">
<path d="M100.073 43.1483L83.3358 21.406C82.7163 20.6019 81.5864 20.4035 80.7296 20.9483L69.9233 27.8208H55.8296C55.6472 27.8208 55.4656 27.8597 55.2902 27.9109L44.3626 31.0565L33.0238 27.9551L22.0062 20.9483C21.1639 20.4127 20.0546 20.5943 19.4282 21.3709L0.915457 44.3018C0.250174 45.1258 0.360037 46.329 1.16265 47.0194L10.8657 55.3698L19.5709 67.1008C17.0249 69.813 17.0745 74.0908 19.7234 76.7405C20.8976 77.9139 22.3907 78.5769 23.9265 78.731C23.8731 79.0789 23.8456 79.4322 23.8456 79.7907C23.8456 81.6416 24.5666 83.3819 25.875 84.6903C27.1842 85.9995 28.9245 86.7205 30.7754 86.7205C30.8006 86.7205 30.825 86.719 30.8494 86.7182C30.8486 86.7655 30.8463 86.8121 30.8463 86.8594C30.8463 88.7103 31.5673 90.4505 32.8758 91.7597C34.185 93.0682 35.9252 93.7892 37.7761 93.7892C38.1416 93.7892 38.5032 93.7594 38.858 93.7045C39.0083 95.2456 39.6728 96.7456 40.8508 97.9235C42.2012 99.2747 43.9758 99.9499 45.7504 99.9499C47.525 99.9499 49.2996 99.2747 50.6507 97.9235L51.7104 96.8638L52.1552 97.2224C53.495 98.5202 55.2345 99.1687 56.974 99.1687C58.7486 99.1687 60.5232 98.4935 61.8736 97.1423C63.2522 95.7637 63.9274 93.944 63.8992 92.1336C65.7089 92.161 67.5292 91.4866 68.9079 90.1087C70.285 88.7309 70.9602 86.9128 70.9335 85.1031C72.8187 85.1329 74.607 84.4088 75.9414 83.0744C77.32 81.6958 77.9952 79.8762 77.967 78.0657C79.7782 78.0932 81.5971 77.4188 82.9757 76.0401C85.3286 73.6872 85.6315 70.0503 83.8867 67.3655L90.2427 54.0537L99.7985 45.8308C100.588 45.151 100.709 43.973 100.073 43.1483ZM21.379 25.1971L29.3014 30.2348L12.0673 51.2309L5.16122 45.2868L21.379 25.1971ZM22.4967 69.7131L24.8878 67.322C24.9603 67.2495 25.0366 67.1809 25.1144 67.1168C25.5821 66.7353 26.1482 66.508 26.7478 66.4538C26.7646 66.4523 26.7822 66.4523 26.7989 66.4515C26.8844 66.4446 26.9698 66.4401 27.0561 66.4408C27.8755 66.4523 28.6369 66.7872 29.2014 67.3831C30.3092 68.5542 30.2497 70.4676 29.0687 71.6487L26.7501 73.9672C25.5775 75.1399 23.6694 75.1399 22.4967 73.9672C21.3241 72.7938 21.3241 70.8857 22.4967 69.7131ZM28.6483 81.9171C28.0799 81.3494 27.7671 80.5941 27.7671 79.7907C27.7671 78.9874 28.0799 78.2321 28.6483 77.6637L33.2847 73.0273C34.1728 72.1392 35.5689 71.8959 36.7042 72.4368C37.8745 72.9945 38.533 74.2648 38.3613 75.5427C38.2697 76.2248 37.9524 76.8672 37.4656 77.3547L32.9025 81.9171C32.3341 82.4855 31.5788 82.7983 30.7754 82.7983C29.972 82.7983 29.2167 82.4855 28.6483 81.9171ZM35.649 88.9857C35.0807 88.4181 34.7678 87.6628 34.7678 86.8594C34.7678 86.056 35.0807 85.3007 35.649 84.7323L40.2847 80.0959C41.2345 79.1468 42.7581 78.9424 43.9208 79.6191C44.9828 80.2371 45.539 81.4501 45.3567 82.6586C45.2567 83.3232 44.9409 83.948 44.4656 84.4233L39.9032 88.9857C39.3348 89.5541 38.5795 89.8669 37.7761 89.8669C36.9727 89.8669 36.2174 89.5541 35.649 88.9857ZM43.6233 95.1503C42.4506 93.9776 42.4506 92.0695 43.6233 90.8969L46.0143 88.5058C46.0868 88.4333 46.1623 88.3654 46.2402 88.3013C46.2425 88.2998 46.244 88.2983 46.2455 88.2968C46.6346 87.9809 47.0916 87.7696 47.5791 87.6773C47.5906 87.6757 47.602 87.6742 47.6135 87.6727C47.6974 87.6574 47.7828 87.6452 47.8683 87.6376C47.9026 87.6345 47.9369 87.6345 47.972 87.6322C48.0422 87.6284 48.1117 87.6238 48.1826 87.6246C49.0012 87.6361 49.7634 87.9702 50.328 88.5668C50.3974 88.6401 50.4623 88.7164 50.5218 88.795C51.4236 89.9737 51.3023 91.7246 50.183 92.8446L47.8767 95.151C46.704 96.3237 44.7959 96.3229 43.6233 95.1503ZM80.2024 73.2669C79.0298 74.4403 77.1217 74.4395 75.949 73.2669C75.9063 73.2241 75.8613 73.1845 75.8155 73.1471L63.2072 60.406C62.445 59.6362 61.2037 59.6301 60.4339 60.3922C59.6641 61.1537 59.658 62.395 60.4194 63.1648L73.1643 76.0424C73.1658 76.044 73.1674 76.0455 73.1689 76.047C74.3415 77.2196 74.3415 79.1285 73.1689 80.3012C72.6005 80.8695 71.8452 81.1824 71.0418 81.1824C70.2377 81.1824 69.4824 80.8695 68.9147 80.3012L60.3889 71.6868C59.6275 70.917 58.3862 70.9109 57.6164 71.6723C56.8466 72.4345 56.8405 73.6758 57.6019 74.4456L65.9972 82.928C66.04 82.9814 66.0857 83.0325 66.1346 83.0813C67.3072 84.2539 67.3072 86.1628 66.1346 87.3355C64.9612 88.5081 63.0523 88.5073 61.8797 87.3347L57.2265 82.6327C56.4643 81.8629 55.223 81.856 54.4532 82.6182C53.6834 83.3796 53.6773 84.6209 54.4387 85.3907L58.9622 89.9607C59.0049 90.0141 59.0507 90.066 59.1003 90.1148C60.2729 91.2875 60.2729 93.1964 59.1003 94.369C57.9276 95.5424 56.0195 95.5416 54.8469 94.369C54.7118 94.234 54.5532 94.1302 54.4021 94.0142C54.2739 93.9166 54.2404 93.8487 54.3044 93.693C54.3693 93.5351 54.4662 93.3924 54.531 93.2337C54.6027 93.0567 54.6607 92.8744 54.7172 92.6913C55.0178 91.7224 55.1063 90.6802 54.9712 89.6746C54.7118 87.7452 53.6506 86.0041 52.0423 84.9024C51.1733 84.3081 50.1678 83.9183 49.1256 83.7718C49.6307 81.544 49.0241 79.1285 47.4464 77.4615C46.1479 76.0897 44.3939 75.3199 42.5071 75.294C42.4384 75.2932 42.3698 75.2932 42.3004 75.294C42.3423 73.4934 41.6877 71.7043 40.4464 70.3929C39.1471 69.0211 37.3931 68.2513 35.5071 68.2253C34.9464 68.2177 34.3803 68.2772 33.834 68.4031C33.6005 66.7788 32.7819 65.2758 31.5421 64.2008C30.31 63.1342 28.7605 62.5422 27.1102 62.5193C25.373 62.4941 23.6663 63.135 22.3762 64.3L14.7964 54.0865L32.9299 31.9949L38.7092 33.5757L31.1614 46.8943C30.249 48.5049 30.0185 50.3741 30.5122 52.1578C31.0058 53.9424 32.1639 55.427 33.7745 56.3395C33.8752 56.3967 33.9767 56.4509 34.0797 56.5028C34.0873 56.5066 34.0949 56.5104 34.1033 56.5142C34.3742 56.6493 34.6526 56.7652 34.9349 56.8629C36.2495 57.3184 37.6693 57.368 39.0388 56.9895C40.8225 56.4959 42.3072 55.337 43.2197 53.7272L48.1246 45.0717L56.8824 45.6927L80.2032 69.0127C81.3751 70.1861 81.3751 72.0942 80.2024 73.2669ZM81.015 64.2787L59.1377 42.4021C59.0965 42.3602 59.053 42.3205 59.008 42.2831C58.6929 42.0207 58.3022 41.862 57.8903 41.833L47.1671 41.0723C46.4256 41.0212 45.6886 41.4156 45.3224 42.0619L39.8078 51.7939C39.4119 52.4928 38.7672 52.9955 37.9928 53.2099C37.2192 53.4243 36.4074 53.3236 35.7078 52.9276C35.0089 52.5317 34.5062 51.887 34.2918 51.1126C34.0774 50.3382 34.1773 49.5265 34.5741 48.8276L41.9357 35.8355L44.9188 34.9772C44.9386 34.9711 44.9577 34.9635 44.9775 34.9574L56.1111 31.7423H69.5632L86.3571 53.0909L81.015 64.2787ZM88.9259 50.0132L73.3955 30.2599L81.3217 25.2192L95.8335 44.0691L88.9259 50.0132Z" fill="#455FED"/>
<path d="M61.0623 24.1389C61.5643 24.1389 62.0663 23.9474 62.4493 23.5644L75.8435 10.1702C76.6095 9.40424 76.6095 8.16293 75.8435 7.39694C75.0775 6.63095 73.8362 6.63095 73.0702 7.39694L59.6761 20.7911C58.9101 21.5571 58.9101 22.7984 59.6761 23.5644C60.0591 23.9474 60.5611 24.1389 61.0623 24.1389Z" fill="#455FED"/>
<path d="M38.5116 23.5644C38.8946 23.9474 39.3966 24.1389 39.8987 24.1389C40.3999 24.1389 40.9019 23.9474 41.2849 23.5644C42.0509 22.7984 42.0509 21.5571 41.2849 20.7911L27.8907 7.39694C27.1248 6.63095 25.8835 6.63095 25.1175 7.39694C24.3515 8.16293 24.3515 9.40424 25.1175 10.1702L38.5116 23.5644Z" fill="#455FED"/>
<path d="M50.4803 24.1389C51.5629 24.1389 52.441 23.2608 52.441 22.1782V11.0934C52.441 10.0108 51.5629 9.13269 50.4803 9.13269C49.3977 9.13269 48.5195 10.0108 48.5195 11.0934V22.1782C48.5195 23.2608 49.3977 24.1389 50.4803 24.1389Z" fill="#455FED"/>
<path d="M48.6695 3.98668C48.9808 4.74123 49.7567 5.23637 50.5754 5.19365C51.3841 5.15169 52.0944 4.60542 52.3446 3.83562C52.5956 3.05971 52.3225 2.17546 51.6725 1.68107C51.0095 1.17601 50.0848 1.14778 49.3913 1.60631C48.6177 2.11748 48.3178 3.13524 48.6695 3.98668Z" fill="#455FED"/>
</g>
<defs>
<clipPath id="clip5">
<rect width="100" height="100" fill="white" transform="translate(0.480469 0.5)"/>
</clipPath>
</defs>
</svg>
