<svg width="100" height="101" viewBox="0 0 100 101" fill="none" xmlns="http://www.w3.org/2000/svg">
<g clip-path="url(#clip2)">
<path d="M80.8594 29.5527C81.9379 29.5527 82.8125 28.6783 82.8125 27.5996V6.35938C82.8125 3.12852 80.184 0.5 76.9531 0.5H5.85938C2.62852 0.5 0 3.12852 0 6.35938V94.6406C0 97.8715 2.62852 100.5 5.85938 100.5H76.9531C80.184 100.5 82.8125 97.8715 82.8125 94.6406V80.2516C82.8125 79.1729 81.9379 78.2984 80.8594 78.2984C79.7809 78.2984 78.9063 79.1729 78.9063 80.2516V94.6406C78.9063 95.7176 78.0301 96.5938 76.9531 96.5938H5.85938C4.78242 96.5938 3.90625 95.7176 3.90625 94.6406V6.35938C3.90625 5.28242 4.78242 4.40625 5.85938 4.40625H76.9531C78.0301 4.40625 78.9063 5.28242 78.9063 6.35938V27.5996C78.9063 28.6783 79.7809 29.5527 80.8594 29.5527Z" fill="#455FED"/>
<path d="M41.4062 11.0469C31.4982 11.0469 23.4375 19.1076 23.4375 29.0156C23.4375 34.1557 25.6074 38.7978 29.0785 42.076C29.1436 42.1455 29.2127 42.2113 29.2883 42.2713C32.4857 45.1969 36.741 46.9842 41.406 46.9842C46.0711 46.9842 50.3264 45.1967 53.5238 42.2713C53.5994 42.2113 53.6685 42.1453 53.7336 42.076C57.2051 38.7978 59.375 34.1557 59.375 29.0156C59.375 19.1076 51.3142 11.0469 41.4062 11.0469ZM41.4062 43.0781C38.217 43.0781 35.2736 42.0094 32.9119 40.2133C34.6285 37.1693 37.8318 35.2656 41.4062 35.2656C44.9807 35.2656 48.184 37.1693 49.9006 40.2133C47.5387 42.0094 44.5955 43.0781 41.4062 43.0781ZM38.2812 28.2344V26.9648C38.2812 25.2418 39.6832 23.8398 41.4062 23.8398C43.1293 23.8398 44.5312 25.2418 44.5312 26.9648V28.2344C44.5312 29.9574 43.1293 31.3594 41.4062 31.3594C39.6832 31.3594 38.2812 29.9574 38.2812 28.2344ZM52.7226 37.3521C51.2822 35.2158 49.2859 33.5543 46.9682 32.5285C47.8881 31.3396 48.4375 29.8504 48.4375 28.2344V26.9648C48.4375 23.0877 45.2834 19.9336 41.4062 19.9336C37.5291 19.9336 34.375 23.0877 34.375 26.9648V28.2344C34.375 29.8504 34.9244 31.3396 35.8443 32.5285C33.5266 33.5543 31.5303 35.2158 30.0898 37.3521C28.3654 35.0176 27.3437 32.1342 27.3437 29.0156C27.3437 21.2615 33.6521 14.9531 41.4062 14.9531C49.1603 14.9531 55.4687 21.2615 55.4687 29.0156C55.4687 32.1342 54.4471 35.0176 52.7226 37.3521Z" fill="#455FED"/>
<path d="M51.9531 86.0469H41.4062C40.3277 86.0469 39.4531 86.9213 39.4531 88C39.4531 89.0787 40.3277 89.9531 41.4062 89.9531H51.9531C53.0316 89.9531 53.9062 89.0787 53.9062 88C53.9062 86.9213 53.0316 86.0469 51.9531 86.0469Z" fill="#455FED"/>
<path d="M51.9531 75.1094H24.2187C23.1402 75.1094 22.2656 75.9838 22.2656 77.0625C22.2656 78.1412 23.1402 79.0156 24.2187 79.0156H51.9531C53.0316 79.0156 53.9062 78.1412 53.9062 77.0625C53.9062 75.9838 53.0316 75.1094 51.9531 75.1094Z" fill="#455FED"/>
<path d="M51.9531 64.1719H24.2187C23.1402 64.1719 22.2656 65.0463 22.2656 66.125C22.2656 67.2037 23.1402 68.0781 24.2187 68.0781H51.9531C53.0316 68.0781 53.9062 67.2037 53.9062 66.125C53.9062 65.0463 53.0316 64.1719 51.9531 64.1719Z" fill="#455FED"/>
<path d="M17.2576 53.8066C16.8945 53.4434 16.3906 53.2344 15.875 53.2344C15.3611 53.2344 14.8572 53.4434 14.4941 53.8066C14.1309 54.1699 13.9219 54.6738 13.9219 55.1875C13.9219 55.7012 14.1307 56.2051 14.4941 56.5684C14.8594 56.9316 15.3611 57.1406 15.875 57.1406C16.3906 57.1406 16.8926 56.9316 17.2576 56.5684C17.6209 56.2051 17.8301 55.7012 17.8301 55.1875C17.8301 54.6738 17.6211 54.1699 17.2576 53.8066Z" fill="#455FED"/>
<path d="M17.2576 64.7441C16.8926 64.3809 16.3906 64.1719 15.875 64.1719C15.3611 64.1719 14.8594 64.3809 14.4941 64.7441C14.1309 65.1074 13.9219 65.6113 13.9219 66.125C13.9219 66.6387 14.1307 67.1426 14.4941 67.5059C14.8594 67.8691 15.3611 68.0781 15.875 68.0781C16.3906 68.0781 16.8926 67.8691 17.2576 67.5059C17.6209 67.1426 17.8301 66.6387 17.8301 66.125C17.8301 65.6113 17.6211 65.1074 17.2576 64.7441Z" fill="#455FED"/>
<path d="M17.2576 75.6816C16.8926 75.3184 16.3906 75.1094 15.875 75.1094C15.3611 75.1094 14.8594 75.3184 14.4941 75.6816C14.1309 76.0449 13.9219 76.5488 13.9219 77.0625C13.9219 77.5762 14.1307 78.0801 14.4941 78.4434C14.8572 78.8066 15.3611 79.0156 15.875 79.0156C16.3906 79.0156 16.8945 78.8066 17.2576 78.4434C17.6209 78.0801 17.8301 77.5762 17.8301 77.0625C17.8301 76.5488 17.6211 76.0449 17.2576 75.6816Z" fill="#455FED"/>
<path d="M51.9531 53.2344H24.2187C23.1402 53.2344 22.2656 54.1088 22.2656 55.1875C22.2656 56.2662 23.1402 57.1406 24.2187 57.1406H51.9531C53.0316 57.1406 53.9062 56.2662 53.9062 55.1875C53.9062 54.1088 53.0316 53.2344 51.9531 53.2344Z" fill="#455FED"/>
<path d="M95.897 25.953C93.9996 24.8575 91.789 24.5665 89.6722 25.1335C87.5558 25.7007 85.7867 27.0581 84.6914 28.9556L60.1128 71.5265C59.9783 71.7599 59.8931 72.0187 59.8632 72.2864L58.1332 87.7833C58.0472 88.5544 58.4257 89.3034 59.0976 89.6915C59.4009 89.8665 59.7378 89.9532 60.074 89.9532C60.4826 89.9532 60.8896 89.8253 61.2324 89.5728L73.7878 80.3259C74.0048 80.1661 74.1865 79.9632 74.321 79.7298L98.8994 37.1589C101.161 33.2417 99.8142 28.2147 95.897 25.953ZM62.5105 83.78L63.414 75.6878L69.0668 78.9515L62.5105 83.78ZM71.9148 76.0851L64.4724 71.7882L84.196 37.6261L91.6384 41.923L71.9148 76.0851ZM95.5166 35.2056L93.5914 38.5401L86.149 34.2433L88.0742 30.9087C88.648 29.9147 89.5746 29.2038 90.6832 28.9067C91.7921 28.6095 92.95 28.7622 93.9437 29.336C94.9377 29.9099 95.6486 30.8364 95.9457 31.945C96.2427 33.0536 96.0904 34.2116 95.5166 35.2056Z" fill="#455FED"/>
</g>
<defs>
<clipPath id="clip2">
<rect width="100" height="100" fill="white" transform="translate(0 0.5)"/>
</clipPath>
</defs>
</svg>
