<svg width="100" height="101" viewBox="0 0 100 101" fill="none" xmlns="http://www.w3.org/2000/svg">
<g clip-path="url(#clip0)">
<path d="M38.2812 88.7812C37.2031 88.7812 36.3281 89.6562 36.3281 90.7344C36.3281 91.8125 37.2031 92.6875 38.2812 92.6875C39.3594 92.6875 40.2344 91.8125 40.2344 90.7344C40.2344 89.6562 39.3594 88.7812 38.2812 88.7812Z" fill="#455FED"/>
<path d="M61.7188 88.7812H46.0938C45.0152 88.7812 44.1406 89.6559 44.1406 90.7344C44.1406 91.8129 45.0152 92.6875 46.0938 92.6875H61.7188C62.7973 92.6875 63.6719 91.8129 63.6719 90.7344C63.6719 89.6559 62.7973 88.7812 61.7188 88.7812Z" fill="#455FED"/>
<path d="M85.1562 9.67969H79.1395C79.2438 7.33711 79.2969 4.91563 79.2969 2.45312C79.2969 1.37461 78.4223 0.5 77.3438 0.5H22.6562C21.5777 0.5 20.7031 1.37461 20.7031 2.45312C20.7031 4.91543 20.7563 7.33691 20.8605 9.67969H14.8438C11.6129 9.67969 8.98438 12.2863 8.98438 15.4902V17.0371C8.98438 32.592 15.033 39.4096 29.2393 44.2703C33.0201 50.383 38.0072 54.2119 44.0902 55.6773C43.885 60.7867 43.5352 65.585 41.1275 69.3084C36.7922 69.7787 33.3016 73.0975 32.5672 77.3492C30.2186 78.1131 28.5156 80.3219 28.5156 82.9219V98.5469C28.5156 99.6254 29.3902 100.5 30.4688 100.5H69.5312C70.6098 100.5 71.4844 99.6254 71.4844 98.5469V82.9219C71.4844 80.3219 69.7814 78.1131 67.433 77.3492C66.6986 73.0975 63.2078 69.7787 58.8725 69.3084C56.4648 65.585 56.115 60.7865 55.9098 55.6771C61.9967 54.2104 66.9838 50.3801 70.7635 44.266C84.941 39.4145 91.0156 32.6092 91.0156 17.0293V15.4902C91.0156 12.2863 88.3871 9.67969 85.1562 9.67969ZM12.8906 17.0371V15.4902C12.8906 14.4223 13.7486 13.5859 14.8438 13.5859H21.0893C21.8379 23.8572 23.6693 32.3984 26.5504 39.0711C16.3154 34.707 12.8906 28.8531 12.8906 17.0371ZM65.625 80.9688C66.702 80.9688 67.5781 81.8449 67.5781 82.9219V96.5938H32.4219V82.9219C32.4219 81.8449 33.298 80.9688 34.375 80.9688H65.625ZM57.8105 73.1561C57.8117 73.1561 57.8127 73.1562 57.8139 73.1562C57.8146 73.1562 57.8154 73.1562 57.8162 73.1562C60.3609 73.158 62.5301 74.7904 63.3359 77.0625H36.6641C37.4699 74.7904 39.6391 73.158 42.1836 73.1562C42.1844 73.1562 42.1852 73.1562 42.1859 73.1562C42.1871 73.1562 42.1881 73.1561 42.1893 73.1561H57.8105ZM45.6016 69.25C47.4256 65.2797 47.7848 60.7637 47.9748 56.2824C48.6391 56.3324 49.315 56.3594 50 56.3594C50.6852 56.3594 51.3611 56.3324 52.0252 56.2826C52.2152 60.7639 52.5744 65.2797 54.3984 69.25H45.6016ZM67.9187 41.4166C63.9104 48.3453 58.1014 52.4531 50 52.4531C41.8992 52.4531 36.0926 48.3467 32.083 41.4197C28.0574 34.4664 25.6291 24.4047 24.8658 11.5145C24.7314 9.22656 24.6494 6.84355 24.6209 4.40625H75.3791C75.3506 6.84336 75.2688 9.22637 75.1342 11.5137C74.3711 24.401 71.9434 34.4617 67.9187 41.4166ZM87.1094 17.0293C87.1094 28.848 83.6848 34.7031 73.4506 39.0674C76.3309 32.3947 78.1619 23.8549 78.9105 13.5859H85.1562C86.2514 13.5859 87.1094 14.4223 87.1094 15.4902V17.0293Z" fill="#455FED"/>
<path d="M63.0023 23.1231C62.7724 22.416 62.1612 21.9006 61.4257 21.7936L54.7407 20.8223L51.7517 14.7645C51.4226 14.0977 50.7437 13.6756 50.0001 13.6756C49.2566 13.6756 48.5777 14.0977 48.2486 14.7645L45.2595 20.8223L38.5745 21.7936C37.8388 21.9006 37.2277 22.416 36.998 23.1231C36.7683 23.8299 36.9599 24.6063 37.4921 25.1252L42.3294 29.84L41.1868 36.4979C41.0609 37.2307 41.362 37.9713 41.9636 38.4082C42.5653 38.8451 43.3628 38.9024 44.0206 38.557L50.0003 35.4137L55.98 38.557C56.6433 38.9057 57.4403 38.8418 58.037 38.4082C58.6384 37.9713 58.9396 37.2307 58.8138 36.4979L57.6712 29.84L62.5081 25.1252C63.0405 24.6063 63.2319 23.8299 63.0023 23.1231ZM54.2091 27.7598C53.7489 28.2086 53.5386 28.8551 53.6476 29.4889L54.2944 33.258L50.9091 31.4785C50.6245 31.3289 50.3124 31.2543 50.0003 31.2543C49.6882 31.2543 49.3761 31.3291 49.0915 31.4785L45.7062 33.258L46.353 29.4889C46.462 28.8553 46.2517 28.2086 45.7915 27.7598L43.053 25.0904L46.838 24.5404C47.4741 24.4479 48.0241 24.0483 48.3085 23.4717L50.0003 20.043L51.6921 23.4719C51.9765 24.0484 52.5265 24.4481 53.1626 24.5406L56.9476 25.0904L54.2091 27.7598Z" fill="#455FED"/>
</g>
<defs>
<clipPath id="clip0">
<rect width="100" height="100" fill="white" transform="translate(0 0.5)"/>
</clipPath>
</defs>
</svg>
