<svg width="100" height="100" viewBox="0 0 100 100" fill="none" xmlns="http://www.w3.org/2000/svg">
<g clip-path="url(#clip3)">
<path d="M59.185 12.0269C58.1346 11.774 57.0813 12.4195 56.8285 13.4679C56.5758 14.5166 57.2209 15.5716 58.2695 15.8244C74.0999 19.6406 85.156 33.694 85.156 49.9998C85.156 69.3849 69.3851 85.1559 49.9998 85.1559C30.6146 85.1559 14.8437 69.3849 14.8437 49.9998C14.8437 33.6946 25.8992 19.6411 41.7288 15.8246C42.7774 15.5716 43.4225 14.5166 43.1698 13.4681C42.9169 12.4195 41.8614 11.7748 40.8134 12.0271C32.4384 14.0464 24.8507 18.8876 19.4482 25.6589C13.8805 32.6372 10.9375 41.0541 10.9375 49.9998C10.9375 71.5388 28.4609 89.0622 49.9998 89.0622C71.5388 89.0622 89.0622 71.539 89.0622 49.9998C89.0622 41.054 86.1192 32.6368 80.5511 25.6583C75.1484 18.8872 67.5603 14.0461 59.185 12.0269Z" fill="#455FED"/>
<path d="M98.8231 45.3022L96.5382 41.0391L96.9192 35.7688C97.2856 32.3907 95.9382 29.0938 93.3101 26.9438L89.5171 23.838L88.0251 19.3435C87.1896 15.907 84.5796 13.1449 81.1933 12.122L76.5115 10.7076L72.926 6.56306C70.8045 4.06756 67.5934 2.76952 64.3358 3.08964L59.4764 3.57381L54.6997 1.17753C51.7559 -0.391795 48.2462 -0.393163 45.3021 1.17734L41.0392 3.4621L35.7691 3.08085C32.3896 2.71444 29.0939 4.06209 26.9441 6.69001L23.8381 10.483L19.3438 11.975C15.9071 12.8105 13.145 15.4204 12.1221 18.8066L10.7079 23.4884L6.56335 27.0741C4.06805 29.1956 2.76923 32.4061 3.08973 35.6643L3.57391 40.5237L1.17763 45.3004C-0.391893 48.2443 -0.393065 51.7539 1.17724 54.6982L3.46219 58.9611L3.08094 64.2314C2.71474 67.6095 4.06219 70.9062 6.69011 73.0564L10.4831 76.1622L11.975 80.6567C12.8104 84.0932 15.4203 86.8553 18.8069 87.8782L23.4885 89.2924L27.0742 93.4371C29.1959 95.9324 32.4056 97.2313 35.6644 96.9106L40.5236 96.4264L45.2999 98.8223C46.7724 99.6074 48.3864 100 50.0005 100C51.6134 100 53.2262 99.608 54.6979 98.8231L58.961 96.5383L64.2311 96.9195C67.609 97.2852 70.9059 95.9383 73.0562 93.3104L76.1621 89.5174L80.6568 88.0256C84.0931 87.1901 86.855 84.5801 87.8779 81.1938L89.2923 76.5122L93.437 72.9265C95.9323 70.805 97.2311 67.5945 96.9106 64.3361L96.4263 59.4771L98.8223 54.7004C100.392 51.7562 100.393 48.2465 98.8231 45.3022ZM95.3671 52.8775C95.3585 52.8935 95.3501 52.9096 95.3421 52.9256L92.6808 58.2312C92.515 58.5617 92.4464 58.9326 92.4829 59.3007L93.0234 64.7206C93.2183 66.7025 92.4271 68.6575 90.8941 69.9611L86.3085 73.9282C86.0288 74.1702 85.8238 74.4864 85.7169 74.8403L84.1386 80.0639C83.5095 82.1467 81.8004 83.7481 79.6783 84.2428C79.6203 84.2563 79.5629 84.2725 79.5064 84.2913L74.3943 85.9879C74.0434 86.1045 73.7326 86.3182 73.4984 86.6043L70.0336 90.836C68.7176 92.4446 66.6959 93.266 64.6272 93.0332C64.6014 93.0303 64.5754 93.028 64.5498 93.026L58.6784 92.6014C58.3086 92.5748 57.9407 92.6533 57.6149 92.8279L52.8563 95.3783C51.0618 96.3354 48.9185 96.3315 47.1226 95.3672C47.1065 95.3588 47.0905 95.3504 47.0745 95.3424L41.7691 92.6811C41.4964 92.5444 41.1964 92.4737 40.8933 92.4737C40.8288 92.4737 40.7642 92.4768 40.6995 92.4832L35.2796 93.0233C33.298 93.219 31.3427 92.427 30.0392 90.8942L26.0721 86.3086C25.8303 86.029 25.5139 85.8237 25.1598 85.7169L19.9361 84.1389C17.8532 83.5098 16.252 81.8007 15.7573 79.6784C15.7438 79.6204 15.7276 79.5632 15.7088 79.5065L14.0122 74.3942C13.8957 74.0433 13.6821 73.7327 13.3959 73.4985L9.16451 70.0335C7.55593 68.7175 6.73445 66.6964 6.96726 64.6273C6.97019 64.6015 6.97253 64.5757 6.97448 64.5497L7.39909 58.6781C7.42585 58.3093 7.34714 57.9406 7.17253 57.6146L4.62195 52.8564C3.66493 51.0619 3.66903 48.9186 4.63289 47.1227C4.64148 47.1068 4.64969 47.0908 4.6577 47.0748L7.31901 41.7692C7.48483 41.4387 7.55339 41.0678 7.51667 40.6998L6.97663 35.2795C6.78171 33.2977 7.57292 31.3426 9.10592 30.0391L13.6914 26.072C13.9711 25.83 14.1762 25.5138 14.2832 25.1599L15.8614 19.9361C16.4905 17.8532 18.1996 16.2521 20.3219 15.7572C20.3799 15.7437 20.4371 15.7275 20.4938 15.7087L25.6057 14.0119C25.9566 13.8955 26.2672 13.6818 26.5014 13.3956L29.9666 9.16403C31.2826 7.55563 33.3043 6.73454 35.3728 6.96696C35.3986 6.96989 35.4244 6.97224 35.4501 6.97419L41.3216 7.3988C41.6894 7.42497 42.0591 7.34685 42.3851 7.17224L47.1435 4.62186C48.9378 3.66483 51.0813 3.66874 52.877 4.63279C52.8928 4.64119 52.9089 4.64959 52.9251 4.6576L58.2307 7.31892C58.5612 7.48474 58.9321 7.55349 59.3001 7.51657L64.7201 6.97653C66.7018 6.78122 68.657 7.57282 69.9606 9.10582L73.9277 13.6914C74.1695 13.971 74.4859 14.1761 74.84 14.2831L80.0636 15.8613C82.1464 16.4904 83.7476 18.1997 84.2425 20.3218C84.256 20.3798 84.2722 20.437 84.291 20.4937L85.9878 25.6056C86.1044 25.9565 86.3179 26.2671 86.604 26.5013L90.8357 29.9663C92.4443 31.2823 93.2655 33.3032 93.0327 35.3725C93.0298 35.3983 93.0275 35.4241 93.0257 35.4501L92.6011 41.3217C92.5743 41.6905 92.653 42.0592 92.8275 42.3852L95.378 47.1436C96.3353 48.9385 96.3312 51.0818 95.3671 52.8775Z" fill="#455FED"/>
<path d="M41.5246 39.3586C41.2113 38.6984 40.5404 38.2408 39.7611 38.2408H29.4414C28.3627 38.2408 27.4883 39.1152 27.4883 40.1939V69.7575C27.4883 70.8362 28.3627 71.7106 29.4414 71.7106H39.7611C40.5707 71.7106 41.265 71.2182 41.5611 70.5165C43.0499 70.7254 44.5837 71.1489 46.1806 71.5911C48.5814 72.2557 51.0636 72.943 53.6427 72.943H64.9178C68.4034 72.943 71.2278 71.0952 72.4733 67.9997C73.0799 66.4915 73.1861 64.9262 72.8317 63.6159C73.4801 63.0329 74.0281 62.3071 74.4426 61.4597C75.2826 59.7425 75.4504 57.8114 74.9742 56.1851C75.8617 55.3277 76.5238 54.1954 76.8699 52.8605C77.1936 51.6124 77.1879 50.381 76.9 49.314C78.6617 48.2777 79.8482 46.3949 79.8482 44.2734C79.8482 42.6095 79.2004 41.0763 78.0238 39.9564C76.8941 38.881 75.3895 38.2887 73.7871 38.2887L57.8944 38.289C56.687 36.7744 56.3112 34.7189 56.9987 33.0645C58.4096 29.6688 58.3221 26.7944 56.7157 23.7448C55.5231 21.4813 52.3165 19.2278 49.6214 19.6126C47.9923 19.8454 46.8136 20.9967 46.4679 22.6928C46.3661 23.1918 46.3382 23.7309 46.306 24.3551C46.2263 25.895 46.1169 28.0039 44.7876 30.5506C43.8867 32.277 43.5861 34.0525 43.3208 35.6191C42.941 37.8633 42.7568 38.9443 41.5246 39.3586ZM31.3945 42.147H37.808V67.8044H31.3945V42.147ZM47.1724 36.2711C47.3999 34.9271 47.6351 33.5373 48.2507 32.3582C49.9739 29.0567 50.1198 26.2401 50.2071 24.5573C50.2304 24.109 50.2523 23.6856 50.2956 23.4727C50.2958 23.4713 50.2962 23.4698 50.2966 23.4684C50.9741 23.4778 52.6415 24.3924 53.2597 25.5659C54.3296 27.5963 54.3651 29.2227 53.3917 31.566C52.5138 33.6789 52.5798 36.1307 53.4481 38.3105C52.4979 38.4428 51.7659 39.2562 51.7659 40.2428C51.7659 41.3213 52.6405 42.1959 53.719 42.1959L73.7871 42.1953C74.3822 42.1953 74.9305 42.405 75.3305 42.7859C75.6096 43.0513 75.942 43.5252 75.942 44.2736C75.942 45.3212 74.9816 46.2271 73.8447 46.2519L68.8176 46.3613C67.7393 46.3847 66.884 47.2779 66.9075 48.3564C66.9307 49.4205 67.8002 50.2671 68.8594 50.2671C68.8737 50.2671 68.8881 50.2671 68.9028 50.2667L73.0895 50.1757C73.226 50.5626 73.2971 51.3007 73.0096 52.1462C72.7649 52.8654 72.108 54.0716 70.4557 54.0716C69.3772 54.0716 68.5026 54.946 68.5026 56.0247C68.5026 57.1034 69.3772 57.9778 70.4557 57.9778C70.7518 57.9778 71.0424 57.9595 71.3268 57.9233C71.351 58.4761 71.2373 59.1235 70.934 59.7435C70.5754 60.4763 69.8666 61.3501 68.5264 61.3501C67.4479 61.3501 66.5733 62.2245 66.5733 63.3032C66.5733 64.3819 67.4479 65.2563 68.5264 65.2563C68.7285 65.2563 68.9285 65.2473 69.126 65.2296C69.1209 65.6044 69.0448 66.0729 68.8317 66.5854C68.5254 67.3225 67.5307 69.0368 64.9182 69.0368H53.6431C51.5948 69.0368 49.4714 68.4489 47.2234 67.8264C45.4345 67.3311 43.6003 66.8237 41.7146 66.5971V43.3115C46.1118 42.5146 46.7181 38.9549 47.1724 36.2711Z" fill="#455FED"/>
<path d="M50.0006 14.844C51.0793 14.844 51.9537 13.9696 51.9537 12.8909C51.9537 11.8122 51.0793 10.9377 50.0006 10.9377H49.9992C48.9205 10.9377 48.0469 11.8122 48.0469 12.8909C48.0469 13.9696 48.9219 14.844 50.0006 14.844Z" fill="#455FED"/>
</g>
<defs>
<clipPath id="clip3">
<rect width="100" height="100" fill="white"/>
</clipPath>
</defs>
</svg>
