<svg width="101" height="101" viewBox="0 0 101 101" fill="none" xmlns="http://www.w3.org/2000/svg">
<g clip-path="url(#clip4)">
<path d="M53.4287 48.0294C52.665 47.2657 51.4287 47.2657 50.665 48.0294C49.9033 48.7911 49.9033 50.0275 50.665 50.7911C51.4287 51.5528 52.665 51.5528 53.4287 50.7911C54.1904 50.0275 54.1904 48.7911 53.4287 48.0294Z" fill="#455FED"/>
<path d="M78.2887 23.1698C74.4719 19.3536 68.2932 19.3534 64.4762 23.1698C60.6694 26.9763 60.6692 33.1716 64.4768 36.9811C68.285 40.7866 74.4809 40.7882 78.2887 36.9808C82.1051 33.1647 82.1059 26.9864 78.2887 23.1698ZM75.5263 34.2185C73.2423 36.5024 69.5244 36.5024 67.2392 34.2188C64.9548 31.9333 64.9546 28.2157 67.2388 25.9319C69.5287 23.6423 73.236 23.6419 75.5263 25.9319C77.8162 28.2214 77.8166 31.9286 75.5263 34.2185Z" fill="#455FED"/>
<path d="M100.385 1.07197C100.001 0.688569 99.478 0.480756 98.9338 0.501264C98.4922 0.517085 87.9776 0.93974 75.4786 5.3575C65.463 8.89383 57.1148 13.9569 50.6658 20.4061C49.2207 21.8512 47.8144 23.3836 46.4689 24.9756C40.0923 21.2221 34.9826 22.3991 31.7523 24.1278C24.3146 28.1082 19.7109 38.916 19.7109 46.6465C19.7115 47.4363 20.1875 48.1486 20.9172 48.4508C21.1588 48.551 21.4127 48.5996 21.6643 48.5996C22.1727 48.5996 22.6721 48.401 23.0457 48.0275C26.9682 44.1051 31.8062 44.3504 33.3867 44.5582L34.0707 45.2422C32.7246 48.4453 31.6402 51.6305 30.8449 54.7283C30.5578 55.8494 30.6547 57.0357 31.0814 58.1209C29.201 58.9875 27.3867 60.2599 25.807 61.8396C20.7795 66.8673 19.7586 79.1201 19.7176 79.6392C19.6727 80.2089 19.8793 80.7699 20.2834 81.174C20.6512 81.5415 21.1486 81.746 21.6643 81.746C21.7154 81.746 21.7668 81.7441 21.8182 81.74C22.3373 81.6992 34.5904 80.6783 39.6179 75.6507C41.197 74.0716 42.4693 72.2576 43.3359 70.3775C44.4847 70.8293 45.6671 70.8849 46.7304 70.6125C49.8269 69.8173 53.0117 68.7334 56.2152 67.3871L56.8992 68.0711C57.1068 69.6517 57.3521 74.4898 53.4298 78.4119C52.8714 78.9705 52.7042 79.8105 53.0066 80.5402C53.3087 81.2701 54.0208 81.7458 54.8109 81.7458C62.5413 81.7458 73.3489 77.1421 77.3294 69.7045C79.0581 66.4746 80.235 61.3648 76.4815 54.9881C78.0727 53.6432 79.6054 52.2369 81.0511 50.7912C87.5003 44.342 92.5631 35.9938 96.0995 25.9789C100.517 13.4794 100.94 2.96454 100.956 2.52314C100.975 1.98114 100.768 1.45556 100.385 1.07197ZM24.0777 42.4455C25.291 36.5738 28.815 30.1307 33.5963 27.5717C36.7914 25.862 40.2838 26.0295 43.997 28.0621C40.8336 32.2227 38.0834 36.7051 35.791 41.4385C35.7619 41.4205 35.4103 40.9785 34.7572 40.8313C34.4886 40.7705 29.3209 39.659 24.0777 42.4455ZM36.8558 72.8884C34.1703 75.574 27.8705 76.9904 23.8887 77.5687C24.4672 73.5867 25.8838 67.2871 28.5691 64.6017C30.073 63.0978 31.8168 61.9576 33.5695 61.3154L40.1422 67.8881C39.5 69.6408 38.3599 71.3845 36.8558 72.8884ZM45.7601 66.8285C45.1949 66.9732 44.5402 66.7607 44.0535 66.2748C41.5267 63.748 40.5382 62.7595 40.2281 62.4496C39.6593 61.8808 38.2646 60.4861 35.184 57.4053C34.6968 56.9172 34.4843 56.2627 34.6287 55.6984C35.2543 53.2621 36.0724 50.7625 37.0674 48.2389L53.2187 64.3902C50.6947 65.3853 48.1955 66.2033 45.7601 66.8285ZM73.8858 67.8613C71.3269 72.6423 64.8839 76.1665 59.0124 77.3796C60.8845 73.8568 61.2972 69.3722 60.6132 66.6529C60.4544 66.0213 60.0423 65.7037 60.0193 65.6664C64.7523 63.374 69.2345 60.6238 73.3954 57.4603C75.428 61.174 75.5954 64.6668 73.8858 67.8613ZM78.2893 48.0291C76.5294 49.7889 74.6343 51.4891 72.6565 53.0822C67.9023 56.9103 62.6694 60.1529 57.0866 62.7342L38.7234 44.3713C41.3046 38.7881 44.5472 33.5553 48.3749 28.8016C49.9695 26.8225 51.6695 24.9272 53.4286 23.1682C59.2148 17.3819 66.6823 12.7768 75.63 9.46199L91.9956 25.8276C88.6811 34.775 84.076 42.2426 78.2893 48.0291ZM93.4008 21.7083L79.7493 8.05672C87.187 5.74657 93.6575 4.88153 96.8872 4.57059C96.576 7.80086 95.7108 14.2714 93.4008 21.7083Z" fill="#455FED"/>
<path d="M47.9044 81.1734C47.1413 80.4108 45.9046 80.4111 45.1421 81.1738L39.6186 86.6992C38.8561 87.4621 38.8563 88.6988 39.619 89.4613C40.3821 90.2238 41.6188 90.2238 42.3813 89.4609L47.9047 83.9356C48.6672 83.1727 48.667 81.9359 47.9044 81.1734Z" fill="#455FED"/>
<path d="M20.2856 53.5528C19.5231 52.7899 18.2866 52.7899 17.5235 53.5524L11.9981 59.0758C11.2352 59.8383 11.235 61.0751 11.9975 61.8379C12.7598 62.6004 13.9963 62.6012 14.7596 61.8383L20.285 56.3149C21.0479 55.5524 21.0481 54.3157 20.2856 53.5528Z" fill="#455FED"/>
<path d="M34.096 83.9373C33.3337 83.1746 32.0968 83.1746 31.3339 83.9371L18.1034 97.1656C17.3406 97.9283 17.3406 99.165 18.1032 99.9277C18.8655 100.69 20.1025 100.691 20.8653 99.9279L34.0958 86.6994C34.8587 85.9368 34.8587 84.7 34.096 83.9373Z" fill="#455FED"/>
<path d="M18.4671 83.9373C17.7046 83.1746 16.4677 83.1746 15.705 83.9371L2.47454 97.1656C1.71165 97.9283 1.71165 99.165 2.47434 99.9277C3.23664 100.69 4.47355 100.691 5.23644 99.9279L18.4669 86.6994C19.2298 85.9368 19.2298 84.7 18.4671 83.9373Z" fill="#455FED"/>
<path d="M17.5201 67.3627C16.7576 66.6002 15.5206 66.6002 14.7579 67.3629L1.52904 80.5934C0.766328 81.3563 0.766328 82.5928 1.52924 83.3557C2.29195 84.1184 3.52871 84.1184 4.29142 83.3555L17.5203 70.125C18.283 69.3622 18.283 68.1256 17.5201 67.3627Z" fill="#455FED"/>
<path d="M61.715 39.7419C60.9519 38.9792 59.7152 38.9792 58.9519 39.7419L56.1894 42.5037C55.4265 43.2664 55.4265 44.5031 56.1894 45.266C56.9525 46.0287 58.1894 46.0287 58.9525 45.266L61.715 42.5042C62.4779 41.7415 62.4779 40.5048 61.715 39.7419Z" fill="#455FED"/>
</g>
<defs>
<clipPath id="clip4">
<rect width="100" height="100" fill="white" transform="translate(0.957031 0.5)"/>
</clipPath>
</defs>
</svg>
