<svg width="100" height="101" viewBox="0 0 100 101" fill="none" xmlns="http://www.w3.org/2000/svg">
<g clip-path="url(#clip1)">
<path d="M99.9287 52.8528C99.7639 52.0449 99.1032 51.4154 98.2854 51.2964C97.4652 51.1766 96.6366 51.6077 96.2613 52.3462C95.9012 53.0542 96.0103 53.9301 96.5336 54.5282C97.0807 55.1538 97.9893 55.3644 98.7561 55.047C99.6075 54.6953 100.113 53.7576 99.9287 52.8528Z" fill="#455FED"/>
<path d="M95.0332 58.3717C94.0956 57.8293 92.8962 58.1489 92.3538 59.0858L87.8341 66.8922C86.4219 69.3291 83.2908 70.1637 80.854 68.7523C78.4171 67.3408 77.5825 64.2097 78.9939 61.7729L97.1137 30.4825C102.634 20.9511 99.3698 8.70514 89.8376 3.18603C80.3054 -2.33383 68.0602 0.930022 62.5411 10.4622L60.2485 14.4203C53.7002 11.1679 46.2852 10.4126 39.157 12.3123C31.3934 14.3822 24.9 19.3504 20.874 26.3039L4.06258 55.3345C0.035784 62.2871 -1.04149 70.3918 1.02761 78.1555C3.0967 85.9184 8.06572 92.4118 15.0184 96.4378C19.6616 99.1264 24.8176 100.5 30.043 100.5C32.6431 100.5 35.2599 100.16 37.8394 99.4728C45.6031 97.4037 52.0957 92.4347 56.1218 85.482L68.6057 63.9252C68.6172 63.9053 68.6263 63.884 68.637 63.8641C68.6492 63.8435 68.6637 63.8244 68.6759 63.8038L72.9339 56.4506C76.9607 49.498 78.038 41.3933 75.9689 33.6296C74.0691 26.5015 69.7227 20.446 63.6421 16.3856L65.9347 12.4268C70.3704 4.76684 80.2116 2.1431 87.8723 6.57959C91.584 8.72802 94.2352 12.1941 95.3399 16.3376C96.4446 20.4811 95.8694 24.807 93.7202 28.5179L75.6004 59.8076C73.1056 64.1159 74.5811 69.651 78.8886 72.1458C80.31 72.969 81.8641 73.3597 83.3984 73.3597C86.5173 73.3597 89.5553 71.7445 91.2269 68.8576L95.7473 61.0512C96.2905 60.1143 95.9709 58.9149 95.0332 58.3717ZM51.5891 29.4083C52.0568 28.6041 53.0166 28.26 53.8688 28.5362C53.8818 28.5408 53.894 28.5446 53.9062 28.5492C53.9535 28.566 53.9993 28.5835 54.045 28.6034C54.0984 28.627 54.1503 28.6529 54.2014 28.6812C54.2144 28.6888 54.2281 28.6941 54.2411 28.7018L54.2457 28.7041C55.1711 29.2412 55.4878 30.4306 54.9522 31.3576L50.5515 38.9557C50.2914 39.4043 49.8725 39.7247 49.3713 39.8582C48.87 39.9918 48.3459 39.9216 47.8973 39.6622C47.4479 39.402 47.1267 38.9824 46.9932 38.4804C46.8589 37.9791 46.9291 37.455 47.1893 37.0064L51.5891 29.4083ZM24.2675 28.2684C27.7686 22.2221 33.4151 17.9016 40.1664 16.1018C46.2821 14.4714 52.642 15.0871 58.2794 17.8207L54.3472 24.6117C53.498 24.4507 52.6168 24.4804 51.757 24.7101C50.3967 25.0725 49.2378 25.8949 48.4496 27.0431C48.4481 27.0454 48.4466 27.0477 48.4443 27.05C48.3604 27.1728 48.2795 27.2987 48.204 27.4292L43.7858 35.0578C42.5117 37.2581 42.8382 39.9513 44.4022 41.7847L41.9265 46.0602L20.9266 34.0378L24.2675 28.2684ZM52.729 83.5167C45.5009 95.9984 29.4654 100.272 16.9837 93.0443C4.50203 85.8162 0.228044 69.7815 7.45613 57.2998L18.9567 37.4397L64.2295 63.6566L52.729 83.5167ZM72.1793 34.6397C73.9791 41.391 73.0415 48.439 69.5403 54.4853L66.2643 60.1425L45.3254 48.0163L47.7943 43.7523C48.1483 43.8194 48.5076 43.8545 48.8685 43.8545C49.3736 43.8545 49.8824 43.7889 50.3837 43.6554C51.8928 43.2526 53.1547 42.2874 53.9367 40.9363L58.3549 33.3076C59.6282 31.1081 59.3025 28.4157 57.7384 26.5808L61.6729 19.7853C66.8502 23.3147 70.5489 28.524 72.1793 34.6397Z" fill="#455FED"/>
</g>
<defs>
<clipPath id="clip1">
<rect width="100" height="100" fill="white" transform="translate(0 0.5)"/>
</clipPath>
</defs>
</svg>
